<svg width="50" height="36" viewBox="0 0 50 36" fill="none" xmlns="http://www.w3.org/2000/svg">
<path d="M44.1852 0.5H5.81481C2.60338 0.5 0 3.12073 0 6.35358V30.0662C0 33.2991 2.60338 35.9198 5.81481 35.9198H44.1852C47.3966 35.9198 50 33.2991 50 30.0662V6.35358C50 3.12073 47.3966 0.5 44.1852 0.5Z" fill="#006FCF"/>
<path d="M8.51855 12.6162L3.70374 23.8014H9.44447L10.1852 22.0118H11.7963L12.5185 23.7828H18.8519V22.4219L19.4074 23.7828H22.6852L23.2408 22.4033V23.7828H36.426L38.037 22.049L39.5185 23.7828L46.2964 23.8014L41.4815 18.2275L46.2964 12.6162H39.6296L38.074 14.3127L36.6296 12.6162H22.2963L21.0556 15.5057L19.7962 12.6162H14.0556V13.9212L13.4259 12.6162L8.51855 12.6162ZM9.62965 14.2008H12.426L15.6111 21.7694V14.2008H18.6853L21.1482 19.6256L23.426 14.2194H26.4815V22.2355H24.6297L24.6111 15.9345L21.889 22.2169H20.2223L17.5 15.9345V22.2169H13.6668L12.9445 20.4272H9.03711L8.29635 22.2169H6.25931L9.62965 14.2008ZM28.1852 14.2008H35.7408L38.0555 16.8106L40.463 14.2008H42.7593L39.2408 18.2275L42.7593 22.2168H40.3519L38.037 19.551L35.6297 22.2168H28.1853L28.1852 14.2008ZM10.9815 15.5616L9.68521 18.7681H12.2778L10.9815 15.5616ZM30.0556 15.8599V17.3326H34.1853V18.9544H30.0556V20.5577H34.6852L36.8333 18.2089L34.7778 15.8599H30.0556Z" fill="white"/>
</svg>
