<svg width="91" height="31" viewBox="0 0 91 31" fill="none" xmlns="http://www.w3.org/2000/svg">
<path d="M83.333 0.797949H7.67109C7.39529 0.797949 7.1228 0.797949 6.84773 0.799454C6.61748 0.800958 6.38905 0.805327 6.15659 0.809005C5.65156 0.814948 5.14772 0.859378 4.64944 0.94191C4.15187 1.02624 3.66988 1.18522 3.21978 1.41348C2.77023 1.64367 2.35946 1.94278 2.00238 2.29996C1.64343 2.65613 1.34421 3.06782 1.11624 3.51919C0.887635 3.96966 0.729122 4.45238 0.646172 4.95068C0.562433 5.44836 0.517372 5.95177 0.511394 6.4564C0.504415 6.687 0.503678 6.91836 0.5 7.14898V24.5333C0.503678 24.7669 0.504415 24.9931 0.511394 25.2267C0.517374 25.7313 0.562435 26.2347 0.646172 26.7323C0.728893 27.2309 0.887416 27.7139 1.11624 28.1646C1.34411 28.6145 1.64337 29.0245 2.00238 29.3787C2.35811 29.7375 2.76914 30.0368 3.21978 30.2652C3.66987 30.4941 4.15181 30.654 4.64944 30.7396C5.1478 30.8215 5.65159 30.866 6.15659 30.8726C6.38905 30.8777 6.61748 30.8807 6.84773 30.8807C7.12279 30.8822 7.3953 30.8822 7.67109 30.8822H83.333C83.6033 30.8822 83.8779 30.8822 84.1482 30.8807C84.3774 30.8807 84.6124 30.8777 84.8416 30.8726C85.3456 30.8663 85.8485 30.8219 86.3458 30.7396C86.8451 30.6534 87.3287 30.4935 87.781 30.2652C88.2312 30.0367 88.6419 29.7373 88.9973 29.3787C89.3554 29.0231 89.6553 28.6134 89.886 28.1646C90.1131 27.7136 90.2701 27.2307 90.3516 26.7323C90.4355 26.2346 90.4821 25.7314 90.4912 25.2267C90.4941 24.9931 90.4941 24.7669 90.4941 24.5333C90.5 24.2601 90.5 23.9884 90.5 23.7107V7.97012C90.5 7.6947 90.5 7.42147 90.4941 7.14898C90.4941 6.91836 90.4941 6.687 90.4912 6.45637C90.4821 5.95169 90.4355 5.44839 90.3516 4.95065C90.2699 4.45264 90.1129 3.96996 89.886 3.51916C89.4217 2.61443 88.6855 1.87799 87.781 1.41341C87.3287 1.18571 86.845 1.02677 86.3458 0.941842C85.8486 0.858947 85.3457 0.814501 84.8416 0.8089C84.6124 0.80523 84.3774 0.800822 84.1482 0.799356C83.8779 0.797852 83.6033 0.797949 83.333 0.797949Z" fill="#A6A6A6"/>
<path d="M6.85142 30.2241C6.62227 30.2241 6.39866 30.2212 6.1713 30.216C5.70032 30.2099 5.23044 30.1689 4.76551 30.0934C4.33199 30.0187 3.91203 29.8798 3.51947 29.6813C3.13051 29.4844 2.77575 29.2263 2.46878 28.9167C2.15736 28.6108 1.89809 28.256 1.70125 27.8664C1.50223 27.4742 1.3645 27.0539 1.29285 26.62C1.21548 26.1538 1.17362 25.6824 1.16763 25.2098C1.16286 25.0512 1.15662 24.5231 1.15662 24.5231V7.149C1.15662 7.149 1.16326 6.62898 1.16766 6.47621C1.1734 6.0044 1.21502 5.53371 1.29216 5.06821C1.36394 4.63314 1.50178 4.21158 1.7009 3.81814C1.89702 3.42878 2.15485 3.07373 2.46439 2.76673C2.77358 2.45682 3.12948 2.19733 3.5191 1.99773C3.91075 1.79984 4.32993 1.66193 4.76257 1.58863C5.22902 1.51234 5.70054 1.47109 6.17315 1.46524L6.85179 1.45605H84.1446L84.8313 1.46561C85.2996 1.47117 85.7669 1.51205 86.229 1.58789C86.6661 1.66211 87.0896 1.80098 87.4857 1.99993C88.2663 2.40219 88.9014 3.03861 89.3021 3.81997C89.498 4.2107 89.6337 4.62882 89.7046 5.06014C89.7827 5.52945 89.8263 6.00384 89.8353 6.47952C89.8375 6.69251 89.8375 6.9213 89.8375 7.149C89.8434 7.43104 89.8434 7.69949 89.8434 7.97014V23.7107C89.8434 23.9839 89.8434 24.2506 89.8375 24.5194C89.8375 24.764 89.8375 24.988 89.8345 25.2186C89.8258 25.6858 89.7828 26.1517 89.706 26.6126C89.6358 27.0496 89.4989 27.4733 89.2999 27.8686C89.1016 28.254 88.8439 28.6058 88.536 28.9108C88.2288 29.222 87.8734 29.4817 87.4836 29.6799C87.0885 29.8799 86.6656 30.0193 86.229 30.0934C85.7641 30.1693 85.2942 30.2103 84.8232 30.216C84.6029 30.2212 84.3722 30.2241 84.1483 30.2241L83.333 30.2256L6.85142 30.2241Z" fill="black"/>
<path d="M19.1288 16.0657C19.1369 15.438 19.3037 14.8225 19.6136 14.2765C19.9234 13.7305 20.3664 13.2717 20.9012 12.9429C20.5615 12.4577 20.1132 12.0584 19.5922 11.7767C19.0711 11.495 18.4915 11.3387 17.8994 11.3201C16.6365 11.1876 15.4121 12.0759 14.7685 12.0759C14.1125 12.0759 13.1216 11.3333 12.0545 11.3552C11.3643 11.3775 10.6917 11.5782 10.1021 11.9378C9.51258 12.2973 9.02621 12.8035 8.69042 13.4069C7.23585 15.9253 8.32083 19.6264 9.71419 21.6621C10.4113 22.6589 11.2261 23.7723 12.2921 23.7328C13.3353 23.6896 13.725 23.0676 14.9842 23.0676C16.2318 23.0676 16.5973 23.7328 17.685 23.7077C18.8044 23.6896 19.5097 22.7065 20.1824 21.7003C20.6833 20.99 21.0687 20.205 21.3244 19.3744C20.6741 19.0993 20.1191 18.6389 19.7286 18.0505C19.3382 17.4621 19.1296 16.7718 19.1288 16.0657Z" fill="white"/>
<path d="M17.0743 9.98127C17.6847 9.24856 17.9854 8.30679 17.9126 7.35596C16.9801 7.4539 16.1187 7.89956 15.5001 8.60416C15.1977 8.94837 14.966 9.34882 14.8184 9.78261C14.6708 10.2164 14.6102 10.675 14.6399 11.1323C15.1063 11.1371 15.5678 11.036 15.9894 10.8366C16.4111 10.6372 16.7821 10.3448 17.0743 9.98127Z" fill="white"/>
<path d="M32.3158 21.2098H28.7558L27.9008 23.7342H26.3929L29.7649 14.3945H31.3316L34.7036 23.7342H33.17L32.3158 21.2098ZM29.1245 20.0449H31.9464L30.5553 15.948H30.5163L29.1245 20.0449Z" fill="white"/>
<path d="M41.9859 20.3296C41.9859 22.4456 40.8534 23.8051 39.1442 23.8051C38.7113 23.8278 38.2807 23.7281 37.9018 23.5174C37.5229 23.3067 37.211 22.9935 37.0018 22.6138H36.9694V25.9865H35.5717V16.9246H36.9246V18.0571H36.9504C37.1692 17.6792 37.4864 17.3677 37.8682 17.1557C38.25 16.9437 38.6821 16.8392 39.1185 16.8533C40.8467 16.8533 41.9859 18.2194 41.9859 20.3296ZM40.5493 20.3296C40.5493 18.951 39.8368 18.0446 38.7498 18.0446C37.6819 18.0446 36.9636 18.9701 36.9636 20.3296C36.9636 21.7016 37.6819 22.6204 38.7498 22.6204C39.8369 22.6204 40.5493 21.7207 40.5493 20.3296Z" fill="white"/>
<path d="M49.4805 20.3296C49.4805 22.4456 48.3479 23.8051 46.6388 23.8051C46.2059 23.8278 45.7753 23.7281 45.3964 23.5174C45.0175 23.3067 44.7055 22.9935 44.4963 22.6138H44.464V25.9865H43.0663V16.9245H44.4192V18.0571H44.4449C44.6637 17.6792 44.9809 17.3677 45.3627 17.1557C45.7445 16.9437 46.1766 16.8392 46.6131 16.8533C48.3413 16.8533 49.4805 18.2194 49.4805 20.3296ZM48.0439 20.3296C48.0439 18.951 47.3314 18.0446 46.2444 18.0446C45.1765 18.0446 44.4581 18.9701 44.4581 20.3296C44.4581 21.7016 45.1765 22.6204 46.2444 22.6204C47.3314 22.6204 48.0439 21.7207 48.0439 20.3296Z" fill="white"/>
<path d="M54.4338 21.1324C54.5374 22.0586 55.4371 22.6667 56.6667 22.6667C57.8448 22.6667 58.6923 22.0585 58.6923 21.2234C58.6923 20.4985 58.1811 20.0644 56.9707 19.7669L55.7603 19.4754C54.0453 19.0611 53.2491 18.2591 53.2491 16.9576C53.2491 15.3461 54.6535 14.2393 56.6476 14.2393C58.6211 14.2393 59.974 15.3461 60.0195 16.9576H58.6086C58.5241 16.0255 57.7537 15.4629 56.6277 15.4629C55.5018 15.4629 54.7313 16.0321 54.7313 16.8606C54.7313 17.5209 55.2234 17.9094 56.4272 18.2069L57.4562 18.4595C59.3724 18.9127 60.1686 19.6825 60.1686 21.0486C60.1686 22.7959 58.7768 23.8903 56.5631 23.8903C54.4918 23.8903 53.0934 22.8216 53.0031 21.1323L54.4338 21.1324Z" fill="white"/>
<path d="M63.1851 15.3135V16.9249H64.48V18.0318H63.1851V21.7857C63.1851 22.3689 63.4444 22.6406 64.0136 22.6406C64.1673 22.6379 64.3208 22.6272 64.4734 22.6083V23.7085C64.2175 23.7564 63.9573 23.778 63.697 23.7732C62.3184 23.7732 61.7808 23.2554 61.7808 21.9348V18.0318H60.7907V16.9249H61.7808V15.3135H63.1851Z" fill="white"/>
<path d="M65.23 20.3301C65.23 18.1876 66.4918 16.8413 68.4595 16.8413C70.4338 16.8413 71.6897 18.1876 71.6897 20.3301C71.6897 22.4784 70.4404 23.8188 68.4595 23.8188C66.4793 23.8188 65.23 22.4784 65.23 20.3301ZM70.2656 20.3301C70.2656 18.8604 69.592 17.993 68.4595 17.993C67.3269 17.993 66.6541 18.867 66.6541 20.3301C66.6541 21.8056 67.3269 22.6665 68.4595 22.6665C69.592 22.6665 70.2656 21.8056 70.2656 20.3301Z" fill="white"/>
<path d="M72.842 16.9245H74.1751V18.0835H74.2075C74.2977 17.7215 74.5097 17.4016 74.808 17.1776C75.1063 16.9535 75.4726 16.839 75.8454 16.8532C76.0064 16.8527 76.1671 16.8702 76.3242 16.9054V18.2128C76.1209 18.1506 75.9088 18.1221 75.6962 18.1283C75.4932 18.1201 75.2907 18.1559 75.1028 18.2332C74.9149 18.3106 74.746 18.4277 74.6076 18.5766C74.4692 18.7254 74.3647 18.9024 74.3012 19.0955C74.2377 19.2885 74.2168 19.493 74.2398 19.6949V23.7338H72.842L72.842 16.9245Z" fill="white"/>
<path d="M82.7685 21.7344C82.5805 22.9705 81.3767 23.8188 79.8365 23.8188C77.8556 23.8188 76.6261 22.4916 76.6261 20.3624C76.6261 18.2265 77.8622 16.8413 79.7777 16.8413C81.6617 16.8413 82.8464 18.1355 82.8464 20.2001V20.679H78.037V20.7634C78.0148 21.014 78.0462 21.2665 78.1291 21.504C78.2119 21.7416 78.3444 21.9588 78.5177 22.1412C78.6909 22.3236 78.901 22.4671 79.1339 22.5621C79.3669 22.6571 79.6174 22.7014 79.8688 22.6922C80.1991 22.7231 80.5306 22.6466 80.8139 22.474C81.0972 22.3015 81.3173 22.0421 81.4413 21.7344L82.7685 21.7344ZM78.0436 19.7021H81.4479C81.4605 19.4768 81.4263 19.2513 81.3476 19.0398C81.2689 18.8283 81.1473 18.6353 80.9904 18.4731C80.8336 18.3108 80.6449 18.1827 80.4362 18.0968C80.2276 18.0109 80.0034 17.969 79.7777 17.9739C79.5501 17.9725 79.3245 18.0162 79.1139 18.1025C78.9033 18.1888 78.7118 18.316 78.5506 18.4767C78.3894 18.6373 78.2616 18.8284 78.1746 19.0387C78.0875 19.249 78.0431 19.4745 78.0436 19.7021Z" fill="white"/>
<path d="M28.9493 7.36447C29.2423 7.34344 29.5364 7.38771 29.8102 7.49408C30.0841 7.60045 30.3309 7.76628 30.5329 7.97959C30.7349 8.19291 30.8871 8.4484 30.9784 8.72763C31.0697 9.00687 31.0979 9.30289 31.0609 9.59434C31.0609 11.028 30.2861 11.8522 28.9493 11.8522H27.3283V7.36447H28.9493ZM28.0253 11.2175H28.8714C29.0808 11.23 29.2904 11.1957 29.4848 11.117C29.6793 11.0383 29.8537 10.9173 29.9955 10.7627C30.1373 10.6081 30.2428 10.4238 30.3043 10.2233C30.3659 10.0227 30.382 9.81101 30.3514 9.60349C30.3798 9.39678 30.3621 9.18636 30.2995 8.98731C30.237 8.78825 30.1313 8.60549 29.9898 8.45211C29.8484 8.29874 29.6748 8.17854 29.4814 8.10015C29.2881 8.02175 29.0798 7.98709 28.8714 7.99865H28.0253V11.2175Z" fill="white"/>
<path d="M34.8802 10.9376C34.7894 11.2471 34.5927 11.5148 34.3244 11.694C34.0561 11.8731 33.7334 11.9522 33.4127 11.9174C33.1896 11.9233 32.9679 11.8805 32.7629 11.7921C32.558 11.7037 32.3747 11.5718 32.2259 11.4055C32.077 11.2392 31.9662 11.0424 31.901 10.829C31.8358 10.6155 31.8178 10.3904 31.8483 10.1693C31.8186 9.94753 31.8369 9.72195 31.9019 9.50785C31.967 9.29374 32.0773 9.09612 32.2253 8.92834C32.3734 8.76057 32.5558 8.62656 32.7601 8.5354C32.9645 8.44424 33.186 8.39805 33.4098 8.39996C34.3521 8.39996 34.9206 9.04376 34.9206 10.1072V10.3405H32.5292V10.3779C32.5187 10.5022 32.5344 10.6273 32.5751 10.7452C32.6158 10.8631 32.6807 10.9712 32.7656 11.0625C32.8505 11.1539 32.9536 11.2265 33.0682 11.2756C33.1828 11.3248 33.3064 11.3495 33.4311 11.3481C33.591 11.3673 33.753 11.3385 33.8965 11.2654C34.0399 11.1923 34.1584 11.0782 34.2369 10.9376L34.8802 10.9376ZM32.5291 9.84615H34.2397C34.2482 9.73249 34.2327 9.61832 34.1944 9.51098C34.1561 9.40364 34.0957 9.30551 34.0172 9.22288C33.9387 9.14026 33.8438 9.07497 33.7385 9.03122C33.6333 8.98746 33.5201 8.96621 33.4061 8.96882C33.2905 8.96737 33.1758 8.98908 33.0687 9.03267C32.9617 9.07625 32.8644 9.14082 32.7827 9.22259C32.7009 9.30435 32.6364 9.40165 32.5929 9.50874C32.5494 9.61583 32.5276 9.73056 32.5291 9.84615Z" fill="white"/>
<path d="M37.0557 8.3999C37.8174 8.3999 38.3154 8.75429 38.3807 9.35142H37.7395C37.6779 9.1028 37.4347 8.94416 37.0557 8.94416C36.6826 8.94416 36.3992 9.12116 36.3992 9.38557C36.3992 9.58789 36.5703 9.71536 36.9375 9.79945L37.5001 9.92982C38.1442 10.0793 38.4461 10.3562 38.4461 10.8538C38.4461 11.4913 37.8519 11.9173 37.0433 11.9173C36.2375 11.9173 35.7124 11.5534 35.6529 10.9533H36.322C36.3797 11.0961 36.4836 11.2154 36.6172 11.2921C36.7508 11.3687 36.9063 11.3983 37.0587 11.376C37.4751 11.376 37.7711 11.1895 37.7711 10.9188C37.7711 10.7168 37.6125 10.5861 37.2732 10.5053L36.6826 10.3683C36.0385 10.2159 35.7403 9.92688 35.7403 9.42302C35.7403 8.82259 36.2904 8.3999 37.0557 8.3999Z" fill="white"/>
<path d="M41.5639 9.57237C41.5213 9.39675 41.4172 9.2422 41.2705 9.13671C41.1238 9.03121 40.9441 8.98175 40.7641 8.99727C40.2044 8.99727 39.8621 9.42621 39.8621 10.1478C39.8621 10.8819 40.2074 11.3204 40.7641 11.3204C40.9424 11.3411 41.122 11.2959 41.2693 11.1934C41.4166 11.0909 41.5214 10.938 41.5639 10.7637H42.2139C42.171 11.1066 41.9957 11.4192 41.7255 11.6348C41.4554 11.8503 41.1117 11.9518 40.7678 11.9176C40.5413 11.9247 40.316 11.8823 40.1077 11.7933C39.8993 11.7043 39.7129 11.5708 39.5616 11.4023C39.4102 11.2337 39.2974 11.0341 39.2312 10.8174C39.1651 10.6008 39.147 10.3722 39.1784 10.1479C39.1486 9.92513 39.1678 9.69858 39.2346 9.48404C39.3014 9.2695 39.4143 9.07213 39.5653 8.90571C39.7163 8.73929 39.9018 8.60784 40.1089 8.52052C40.3159 8.4332 40.5395 8.39213 40.7641 8.40017C41.1108 8.36823 41.4563 8.47286 41.7271 8.69178C41.9979 8.91071 42.1726 9.22665 42.2139 9.57239L41.5639 9.57237Z" fill="white"/>
<path d="M42.8772 10.8942C42.8772 10.2846 43.3311 9.93312 44.1368 9.88317L45.0542 9.83029V9.53797C45.0542 9.18028 44.8177 8.9783 44.3608 8.9783C43.9877 8.9783 43.7292 9.11528 43.655 9.35472H43.0079C43.0762 8.77301 43.6234 8.3999 44.3917 8.3999C45.2408 8.3999 45.7196 8.82259 45.7196 9.53797V11.8519H45.0762V11.376H45.0233C44.916 11.5467 44.7653 11.6859 44.5866 11.7793C44.4078 11.8727 44.2075 11.9171 44.0061 11.9077C43.8639 11.9225 43.7202 11.9074 43.5843 11.8632C43.4483 11.8191 43.3231 11.7469 43.2168 11.6514C43.1104 11.5559 43.0252 11.4392 42.9668 11.3088C42.9083 11.1784 42.8778 11.0371 42.8772 10.8942ZM45.0542 10.6048V10.3217L44.2272 10.3745C43.7608 10.4058 43.5492 10.5644 43.5492 10.863C43.5492 11.1678 43.8137 11.3451 44.1772 11.3451C44.2838 11.3559 44.3914 11.3452 44.4937 11.3135C44.596 11.2819 44.6909 11.23 44.7727 11.1609C44.8545 11.0918 44.9216 11.007 44.9699 10.9114C45.0183 10.8159 45.047 10.7116 45.0542 10.6048Z" fill="white"/>
<path d="M46.7662 8.46501H47.4096V8.98428H47.4596C47.5316 8.80402 47.6589 8.65122 47.8232 8.54783C47.9875 8.44444 48.1803 8.39577 48.374 8.40882C48.4741 8.40747 48.5741 8.41683 48.6722 8.43673V9.09632C48.5495 9.07011 48.4245 9.05658 48.2991 9.05593C48.1889 9.04603 48.0778 9.0593 47.973 9.09489C47.8682 9.13048 47.772 9.1876 47.6905 9.26258C47.6091 9.33756 47.5443 9.42874 47.5002 9.53027C47.4562 9.6318 47.4338 9.74142 47.4346 9.8521V11.8517H46.7662L46.7662 8.46501Z" fill="white"/>
<path d="M49.4614 8.46501H50.1048V8.98428H50.1548C50.2268 8.80402 50.3541 8.65122 50.5184 8.54783C50.6827 8.44444 50.8755 8.39577 51.0692 8.40882C51.1693 8.40747 51.2693 8.41683 51.3674 8.43673V9.09632C51.2447 9.07011 51.1197 9.05658 50.9943 9.05593C50.884 9.04603 50.7729 9.0593 50.6681 9.09489C50.5633 9.13048 50.4671 9.1876 50.3857 9.26258C50.3043 9.33756 50.2395 9.42874 50.1954 9.53027C50.1513 9.6318 50.129 9.74142 50.1298 9.8521V11.8517H49.4614L49.4614 8.46501Z" fill="white"/>
<path d="M54.8826 10.9376C54.7918 11.2471 54.595 11.5148 54.3268 11.6939C54.0585 11.8731 53.7358 11.9522 53.4151 11.9174C53.192 11.9233 52.9703 11.8805 52.7653 11.7921C52.5604 11.7037 52.3771 11.5718 52.2283 11.4055C52.0794 11.2392 51.9685 11.0424 51.9033 10.829C51.8381 10.6155 51.8202 10.3904 51.8507 10.1693C51.821 9.94753 51.8393 9.72195 51.9043 9.50785C51.9694 9.29374 52.0796 9.09612 52.2277 8.92834C52.3758 8.76057 52.5582 8.62656 52.7625 8.5354C52.9669 8.44424 53.1884 8.39805 53.4122 8.39996C54.3545 8.39996 54.923 9.04376 54.923 10.1072V10.3405H52.5315V10.3779C52.5211 10.5022 52.5367 10.6273 52.5774 10.7452C52.6181 10.8631 52.683 10.9712 52.7679 11.0625C52.8528 11.1539 52.9559 11.2265 53.0705 11.2756C53.1851 11.3248 53.3088 11.3495 53.4335 11.3481C53.5933 11.3673 53.7553 11.3385 53.8988 11.2654C54.0423 11.1923 54.1608 11.0782 54.2392 10.9376L54.8826 10.9376ZM52.5315 9.84614H54.2421C54.2505 9.73248 54.2351 9.61831 54.1968 9.51097C54.1584 9.40363 54.0981 9.3055 54.0196 9.22287C53.9411 9.14025 53.8461 9.07496 53.7409 9.03121C53.6357 8.98746 53.5224 8.9662 53.4085 8.96881C53.2929 8.96736 53.1782 8.98907 53.0711 9.03265C52.964 9.07623 52.8667 9.1408 52.785 9.22257C52.7033 9.30433 52.6388 9.40163 52.5952 9.50872C52.5517 9.61582 52.53 9.73055 52.5315 9.84614Z" fill="white"/>
<path d="M55.7831 12.1907H56.4669C56.5235 12.4364 56.8062 12.5951 57.2572 12.5951C57.8139 12.5951 58.1437 12.3307 58.1437 11.883V11.233H58.0938C57.9889 11.4149 57.8358 11.5644 57.6514 11.6648C57.4669 11.7651 57.2583 11.8126 57.0486 11.8018C56.1841 11.8018 55.6494 11.1335 55.6494 10.1195C55.6494 9.08687 56.19 8.40891 57.0552 8.40891C57.2702 8.40143 57.4831 8.45317 57.6706 8.55847C57.8582 8.66378 58.0132 8.81861 58.1187 9.00605H58.1716V8.4651H58.8121V11.8797C58.8121 12.6542 58.2054 13.1455 57.2476 13.1455C56.4015 13.1456 55.8543 12.7662 55.7831 12.1907ZM58.1562 10.1162C58.1562 9.44157 57.8073 9.00935 57.2381 9.00935C56.663 9.00935 56.3398 9.44159 56.3398 10.1162C56.3398 10.7912 56.663 11.2234 57.2381 11.2234C57.811 11.2234 58.1562 10.7945 58.1562 10.1162Z" fill="white"/>
<path d="M59.6839 10.8942C59.6839 10.2846 60.1378 9.93312 60.9435 9.88317L61.8609 9.83029V9.53797C61.8609 9.18028 61.6244 8.9783 61.1675 8.9783C60.7944 8.9783 60.5359 9.11528 60.4617 9.35472H59.8146C59.8829 8.77301 60.4301 8.3999 61.1984 8.3999C62.0475 8.3999 62.5263 8.82259 62.5263 9.53797V11.8519H61.8829V11.376H61.83C61.7227 11.5467 61.572 11.6859 61.3933 11.7793C61.2145 11.8727 61.0142 11.9171 60.8128 11.9077C60.6706 11.9225 60.5269 11.9074 60.391 11.8632C60.255 11.8191 60.1298 11.7469 60.0235 11.6514C59.9171 11.5559 59.8319 11.4392 59.7735 11.3088C59.715 11.1784 59.6845 11.0371 59.6839 10.8942ZM61.8609 10.6048V10.3217L61.0339 10.3745C60.5675 10.4058 60.3559 10.5644 60.3559 10.863C60.3559 11.1678 60.6204 11.3451 60.9839 11.3451C61.0905 11.3559 61.1981 11.3452 61.3004 11.3135C61.4027 11.2819 61.4976 11.23 61.5794 11.1609C61.6612 11.0918 61.7283 11.007 61.7766 10.9114C61.825 10.8159 61.8537 10.7116 61.8609 10.6048Z" fill="white"/>
<path d="M63.5729 8.46501H64.2163V8.98428H64.2663C64.3383 8.80402 64.4656 8.65122 64.6299 8.54783C64.7942 8.44444 64.987 8.39577 65.1807 8.40882C65.2808 8.40747 65.3808 8.41683 65.4789 8.43673V9.09632C65.3562 9.07011 65.2312 9.05658 65.1058 9.05593C64.9956 9.04603 64.8845 9.0593 64.7797 9.09489C64.6749 9.13048 64.5787 9.1876 64.4972 9.26258C64.4158 9.33756 64.351 9.42874 64.3069 9.53027C64.2629 9.6318 64.2405 9.74142 64.2413 9.8521V11.8517H63.5729L63.5729 8.46501Z" fill="white"/>
<path d="M68.0555 8.46568H68.6989V9.00368H68.7488C68.8336 8.81045 68.9765 8.64847 69.1576 8.54031C69.3388 8.43215 69.5492 8.38321 69.7595 8.40031C69.9243 8.38792 70.0897 8.41276 70.2436 8.473C70.3975 8.53324 70.5358 8.62734 70.6484 8.74831C70.761 8.86928 70.8449 9.01403 70.8939 9.17184C70.943 9.32964 70.9559 9.49646 70.9317 9.65993V11.8523H70.2633V9.82777C70.2633 9.28353 70.0268 9.01287 69.5325 9.01287C69.4206 9.00766 69.309 9.0267 69.2051 9.06869C69.1013 9.11068 69.0078 9.17462 68.9309 9.25614C68.8541 9.33766 68.7959 9.43482 68.7601 9.54096C68.7244 9.64711 68.712 9.75973 68.7239 9.8711V11.8524H68.0555V8.46568Z" fill="white"/>
<path d="M71.7726 10.8942C71.7726 10.2846 72.2266 9.93312 73.0323 9.88317L73.9496 9.83029V9.53797C73.9496 9.18028 73.7131 8.9783 73.2563 8.9783C72.8832 8.9783 72.6246 9.11528 72.5505 9.35472H71.9034C71.9717 8.77301 72.5189 8.3999 73.2871 8.3999C74.1362 8.3999 74.6151 8.82259 74.6151 9.53797V11.8519H73.9717V11.376H73.9188C73.8115 11.5467 73.6607 11.6859 73.482 11.7793C73.3033 11.8727 73.103 11.9171 72.9015 11.9077C72.7594 11.9225 72.6157 11.9074 72.4797 11.8632C72.3438 11.8191 72.2186 11.7469 72.1122 11.6514C72.0059 11.5559 71.9207 11.4392 71.8622 11.3088C71.8037 11.1784 71.7732 11.0371 71.7726 10.8942ZM73.9496 10.6048V10.3217L73.1226 10.3745C72.6562 10.4058 72.4447 10.5644 72.4447 10.863C72.4447 11.1678 72.7091 11.3451 73.0727 11.3451C73.1792 11.3559 73.2868 11.3452 73.3891 11.3135C73.4914 11.2819 73.5863 11.23 73.6681 11.1609C73.7499 11.0918 73.817 11.007 73.8654 10.9114C73.9137 10.8159 73.9424 10.7116 73.9496 10.6048Z" fill="white"/>
</svg>
