<svg width="50" height="36" viewBox="0 0 50 36" fill="none" xmlns="http://www.w3.org/2000/svg">
<path d="M44.1923 0.5H5.80769C2.60019 0.5 0 3.11752 0 6.34641V30.0805C0 33.3094 2.60019 35.9269 5.80769 35.9269H44.1923C47.3998 35.9269 50 33.3094 50 30.0805V6.34641C50 3.11752 47.3998 0.5 44.1923 0.5Z" fill="white"/>
<path d="M15.4258 17.1685C15.4258 15.6972 16.618 15.0002 16.6758 14.9616C16.0027 13.9549 14.945 13.8388 14.5795 13.8194C13.6373 13.7613 12.8296 14.3614 12.3873 14.3614C11.945 14.3614 11.2527 13.858 10.5027 13.858C9.54114 13.858 8.63729 14.4195 8.1373 15.31C7.11806 17.0717 7.86806 19.6851 8.84883 21.1177C9.3296 21.834 9.90652 22.6083 10.6758 22.589C11.3873 22.5696 11.6758 22.1244 12.5411 22.1244C13.4065 22.1244 13.6758 22.589 14.4258 22.589C15.2143 22.589 15.7142 21.8727 16.195 21.1757C16.7527 20.3627 16.9642 19.5884 16.9835 19.5496C16.9835 19.5496 15.4642 18.9495 15.445 17.2072L15.4258 17.1685Z" fill="black"/>
<path d="M14.5779 11.0334C14.001 11.0528 13.2895 11.4206 12.8856 11.924C12.5202 12.3499 12.1933 13.0468 12.2702 13.705C12.9241 13.763 13.5779 13.3758 13.9818 12.8919C14.3856 12.3886 14.6548 11.7304 14.5779 11.0334Z" fill="black"/>
<path d="M31.3489 14.6734C29.5989 14.6734 28.3104 15.6801 28.272 17.0546H29.7527C29.8681 16.3965 30.4835 15.9705 31.3104 15.9705C32.3104 15.9705 32.8873 16.4351 32.8873 17.3062V17.8871L30.8297 18.0032C28.9258 18.1194 27.8873 18.9131 27.8873 20.2682C27.8873 21.6233 28.9451 22.572 30.4835 22.572C31.5219 22.572 32.4643 22.0493 32.9066 21.2168H32.9451V22.4945H34.4643V17.1901C34.4643 15.6607 33.2335 14.6541 31.3681 14.6541L31.3489 14.6734ZM32.8681 19.61C32.8681 20.6167 32.022 21.3137 30.9066 21.3137C30.022 21.3137 29.4835 20.8877 29.4835 20.2489C29.4835 19.61 30.022 19.1841 31.0412 19.126L32.8681 19.0099V19.61Z" fill="black"/>
<path d="M40.7181 14.7695L38.7757 21.0612H38.7373L36.795 14.7695H35.0835L37.872 22.5326L37.7181 22.9971C37.468 23.7909 37.0642 24.1006 36.3334 24.1006C36.1989 24.1006 35.9489 24.1006 35.8527 24.0812V25.3589C35.8527 25.3589 36.3527 25.3977 36.468 25.3977C38.0642 25.3977 38.8142 24.7782 39.4873 22.9198L42.3719 14.7695H40.6988H40.7181Z" fill="black"/>
<path d="M23.9843 11.8447H20.0227V22.4922H21.6573V18.8527H23.9266C26.0034 18.8527 27.465 17.4201 27.465 15.3487C27.465 13.2773 26.0419 11.8447 23.9843 11.8447ZM23.5419 17.4589H21.6573V13.2386H23.5419C24.9651 13.2386 25.7727 14.0129 25.7727 15.3487C25.7727 16.6845 24.9651 17.4589 23.5228 17.4589H23.5419Z" fill="black"/>
</svg>
