<svg width="11" height="11" viewBox="0 0 11 11" fill="none" xmlns="http://www.w3.org/2000/svg">
<path d="M10.3609 4.85123H9.23597C9.17209 4.85123 9.11098 4.87901 9.06792 4.92762L6.02776 8.43165V0.611107C6.02776 0.549998 5.97776 0.5 5.91665 0.5H5.08335C5.02224 0.5 4.97224 0.549998 4.97224 0.611107V8.43165L1.93207 4.92762C1.89041 4.87901 1.8293 4.85123 1.76402 4.85123H0.639064C0.544623 4.85123 0.493236 4.96373 0.555734 5.03456L5.16529 10.3469C5.20696 10.3949 5.25847 10.4335 5.31634 10.4599C5.37421 10.4863 5.43708 10.5 5.50069 10.5C5.56431 10.5 5.62718 10.4863 5.68505 10.4599C5.74292 10.4335 5.79443 10.3949 5.8361 10.3469L10.4443 5.03456C10.5068 4.96234 10.4554 4.85123 10.3609 4.85123Z" fill="#6B6B6B"/>
</svg>
