<svg width="22" height="26" viewBox="0 0 22 26" fill="none" xmlns="http://www.w3.org/2000/svg">
<path d="M21 6.75H16.75V6.25C16.75 3.075 14.175 0.5 11 0.5C7.825 0.5 5.25 3.075 5.25 6.25V6.75H1C0.446875 6.75 0 7.19688 0 7.75V24.5C0 25.0531 0.446875 25.5 1 25.5H21C21.5531 25.5 22 25.0531 22 24.5V7.75C22 7.19688 21.5531 6.75 21 6.75ZM7.5 6.25C7.5 4.31562 9.06563 2.75 11 2.75C12.9344 2.75 14.5 4.31562 14.5 6.25V6.75H7.5V6.25ZM19.75 23.25H2.25V9H5.25V11.75C5.25 11.8875 5.3625 12 5.5 12H7.25C7.3875 12 7.5 11.8875 7.5 11.75V9H14.5V11.75C14.5 11.8875 14.6125 12 14.75 12H16.5C16.6375 12 16.75 11.8875 16.75 11.75V9H19.75V23.25Z" fill="#1A1A1A"/>
</svg>
