<svg width="25" height="25" viewBox="0 0 25 25" fill="none" xmlns="http://www.w3.org/2000/svg">
<path fill-rule="evenodd" clip-rule="evenodd" d="M0 12.5C0 19.3942 5.60577 25 12.5 25C19.3942 25 25 19.3942 25 12.5C25 5.60577 19.3942 0 12.5 0C5.60577 0 0 5.60577 0 12.5ZM1.92308 12.5C1.92308 6.66346 6.66346 1.92308 12.5 1.92308C18.3365 1.92308 23.0769 6.66346 23.0769 12.5C23.0769 18.3365 18.3365 23.0769 12.5 23.0769C6.66346 23.0769 1.92308 18.3365 1.92308 12.5ZM13.4615 14.3362H18.2692V12.4131H13.4615V4.47083H11.5385V12.4131C11.5385 13.4708 12.4038 14.3362 13.4615 14.3362Z" fill="white"/>
</svg>
