<svg width="16" height="21" viewBox="0 0 16 21" fill="none" xmlns="http://www.w3.org/2000/svg">
<path d="M12.6917 3.78906L11.6205 4.86026L10.5037 5.97703C10.9595 6.54681 11.233 7.25335 11.233 8.00546C11.233 8.78037 10.9595 9.4869 10.4581 10.0795L11.6205 11.2418L12.6461 12.2674C13.7173 11.1051 14.3099 9.60085 14.3099 8.00546C14.3327 6.43286 13.7401 4.95142 12.6917 3.78906Z" fill="#45B2E0"/>
<path d="M12.6689 12.2901C12.6006 12.3585 12.5322 12.4269 12.4638 12.4953C11.2559 13.7032 9.68327 14.3414 7.97392 14.3414C6.28736 14.3414 4.69196 13.6804 3.48402 12.4953C3.37007 12.3813 3.37007 12.199 3.48402 12.085L4.16776 11.4013C2.4812 9.46401 2.50399 6.56951 4.21335 4.65504L3.48402 3.92572C3.43844 3.88013 3.39286 3.78897 3.39286 3.72059C3.39286 3.65222 3.41565 3.56105 3.48402 3.51547C4.69196 2.30753 6.26456 1.66937 7.97392 1.66937C9.66047 1.66937 11.2559 2.33032 12.4638 3.51547C12.555 3.60664 12.6233 3.67501 12.6917 3.76618L13.3983 3.05965C13.4438 3.01406 13.4894 2.9229 13.4894 2.85452C13.4894 2.78615 13.4666 2.69498 13.3983 2.6494C10.4354 -0.313472 5.58083 -0.313472 2.61795 2.6494C1.1821 4.08526 0.384399 5.99973 0.384399 8.05095C0.384399 10.0794 1.1821 11.9939 2.61795 13.4525C4.09939 14.9339 6.05944 15.686 8.0195 15.686C9.97955 15.686 11.9168 14.9339 13.421 13.4525C13.4666 13.4069 13.5122 13.3157 13.5122 13.2474C13.5122 13.179 13.4894 13.0878 13.421 13.0423L12.6689 12.2901Z" fill="#77CEF3"/>
<path d="M4.21331 4.65534C4.28168 4.58697 4.32727 4.51859 4.41843 4.45022C6.40128 2.46737 9.63765 2.46737 11.6205 4.45022C11.6661 4.4958 11.7117 4.58697 11.7117 4.65534C11.7117 4.72371 11.6889 4.79209 11.6205 4.86046L12.6917 3.78927C12.6233 3.6981 12.5322 3.60694 12.4638 3.53856C11.2558 2.33062 9.68323 1.69246 7.97388 1.69246C6.28732 1.66967 4.69193 2.33062 3.48399 3.53856C3.4384 3.58415 3.39282 3.67531 3.39282 3.74369C3.39282 3.81206 3.41561 3.90322 3.48399 3.94881L4.21331 4.65534Z" fill="#2AA1D4"/>
<path d="M12.669 12.2907L11.6434 11.2651C11.6889 11.3107 11.7345 11.3791 11.7345 11.4703C11.7345 11.5386 11.7117 11.6298 11.6434 11.6754C10.6405 12.6782 9.34144 13.1568 8.04233 13.1568C6.74322 13.1568 5.39854 12.6554 4.41851 11.6526C4.32734 11.5614 4.25897 11.493 4.19059 11.4019L3.50685 12.0856C3.3929 12.1996 3.3929 12.3819 3.50685 12.4959C4.7148 13.7038 6.2874 14.342 7.99675 14.342C9.68331 14.342 11.2787 13.681 12.4866 12.4959C12.5322 12.4275 12.6006 12.3591 12.669 12.2907Z" fill="#2AA1D4"/>
<path d="M8.01944 13.1565C6.72033 13.1565 5.39844 12.6551 4.41841 11.675C2.43556 9.69219 2.43556 6.45582 4.41841 4.47297C6.40126 2.49013 9.63763 2.49013 11.6205 4.47297C11.6661 4.51856 11.7116 4.60972 11.7116 4.6781C11.7116 4.74647 11.6888 4.83764 11.6205 4.88322L9.84275 6.66094C9.72879 6.7749 9.54646 6.7749 9.4325 6.66094C8.6576 5.88604 7.38128 5.88604 6.60638 6.66094C5.83147 7.43585 5.83147 8.71216 6.60638 9.48707C7.38128 10.262 8.6576 10.262 9.4325 9.48707C9.54646 9.37311 9.72879 9.37311 9.84275 9.48707L11.6205 11.2648C11.6661 11.3104 11.7116 11.4015 11.7116 11.4699C11.7116 11.5383 11.6888 11.6295 11.6205 11.675C10.6404 12.6551 9.31855 13.1565 8.01944 13.1565Z" fill="#1E659E"/>
<path d="M2.5724 20.0646C2.29891 20.3381 2.02541 20.4292 1.66075 20.4292C0.97701 20.4292 0.407227 20.019 0.407227 19.1985C0.407227 18.3552 0.97701 17.9678 1.66075 17.9678C2.00262 17.9678 2.25333 18.0589 2.50403 18.3096L2.13937 18.6971C2.00262 18.5831 1.82029 18.5148 1.66075 18.5148C1.2733 18.5148 0.97701 18.8111 0.97701 19.1985C0.97701 19.6543 1.2733 19.8822 1.63796 19.8822C1.82029 19.8822 2.00262 19.8367 2.16216 19.6771L2.5724 20.0646Z" fill="#1864A0"/>
<path d="M5.17061 19.1985C5.17061 19.8822 4.71478 20.4292 3.93987 20.4292C3.16497 20.4292 2.73193 19.8822 2.73193 19.1985C2.73193 18.5376 3.18776 17.9678 3.93987 17.9678C4.69199 17.9678 5.17061 18.5376 5.17061 19.1985ZM3.30172 19.1985C3.30172 19.5632 3.50684 19.8822 3.93987 19.8822C4.37291 19.8822 4.57803 19.5404 4.57803 19.1985C4.57803 18.8566 4.32733 18.5148 3.93987 18.5148C3.52963 18.5148 3.30172 18.8566 3.30172 19.1985Z" fill="#1864A0"/>
<path d="M7.24459 20.36V19.1293C7.24459 18.7647 7.03947 18.4912 6.67481 18.4912C6.31015 18.4912 6.08223 18.7874 6.08223 19.1521V20.36H5.51245V18.0125H6.03665L6.08223 18.3316C6.31015 18.1037 6.56085 17.9897 6.85714 17.9897C7.40413 17.9897 7.85996 18.4 7.85996 19.1521V20.3828H7.24459V20.36Z" fill="#1864A0"/>
<path d="M9.40975 17.4887C9.20463 17.4887 9.06788 17.6255 9.06788 17.899V18.0585H9.75162V18.5599H9.06788V20.3604H8.4981V18.5599H8.06506V18.0585H8.4981V17.899C8.4981 17.2608 8.93114 16.9873 9.38696 16.9873H9.56929V17.4887H9.40975Z" fill="#1864A0"/>
<path d="M10.7317 17.3746C10.7317 17.8304 10.048 17.8304 10.048 17.3746C10.048 16.9188 10.7317 16.9188 10.7317 17.3746ZM10.0936 18.0127V20.3603H10.6633V18.0127H10.0936Z" fill="#1864A0"/>
<path d="M13.535 19.1985C13.535 19.8822 13.0792 20.4292 12.3043 20.4292C11.5521 20.4292 11.0963 19.8822 11.0963 19.1985C11.0963 18.5376 11.5521 17.9678 12.3043 17.9678C13.0564 17.9678 13.535 18.5376 13.535 19.1985ZM11.6889 19.1985C11.6889 19.5632 11.894 19.8822 12.327 19.8822C12.7601 19.8822 12.9652 19.5404 12.9652 19.1985C12.9652 18.8566 12.7145 18.5148 12.327 18.5148C11.894 18.5148 11.6889 18.8566 11.6889 19.1985Z" fill="#1864A0"/>
<path d="M15.6318 17.8975C15.6318 18.3989 15.3127 18.8091 14.743 18.8091C14.1732 18.8091 13.8313 18.3989 13.8313 17.8975C13.8313 17.3961 14.1732 16.9858 14.743 16.9858C15.3127 16.9858 15.6318 17.3961 15.6318 17.8975ZM14.743 18.5584C15.1532 18.5584 15.3811 18.2622 15.3811 17.8975C15.3811 17.5328 15.1532 17.2365 14.743 17.2365C14.3327 17.2365 14.082 17.5328 14.082 17.8975C14.082 18.2622 14.3327 18.5584 14.743 18.5584ZM15.1304 18.2166L14.9709 18.057C14.9025 18.1254 14.8569 18.1482 14.7657 18.1482C14.629 18.1482 14.4922 18.057 14.4922 17.8975C14.4922 17.7152 14.629 17.624 14.7657 17.624C14.8341 17.624 14.9025 17.6468 14.9709 17.7152L15.1304 17.5784C15.0392 17.4872 14.9253 17.4189 14.7657 17.4189C14.4922 17.4189 14.2643 17.6012 14.2643 17.8975C14.2643 18.1938 14.4922 18.3761 14.7657 18.3761C14.9253 18.3761 15.0392 18.3077 15.1304 18.2166Z" fill="#1864A0"/>
</svg>
