<svg width="27" height="26" viewBox="0 0 27 26" fill="none" xmlns="http://www.w3.org/2000/svg">
<path fill-rule="evenodd" clip-rule="evenodd" d="M2.77124 13.2409C2.77124 7.31563 7.57466 2.51221 13.5 2.51221C19.4253 2.51221 24.2287 7.31563 24.2287 13.2409C24.2287 19.1663 19.4253 23.9697 13.5 23.9697C7.57466 23.9697 2.77124 19.1663 2.77124 13.2409ZM13.5 0.512207C6.47009 0.512207 0.77124 6.21106 0.77124 13.2409C0.77124 20.2708 6.47009 25.9697 13.5 25.9697C20.5299 25.9697 26.2287 20.2708 26.2287 13.2409C26.2287 6.21106 20.5299 0.512207 13.5 0.512207ZM11.5251 19.3495V13.7872H10.0791V11.4338H11.5251V9.02709C11.5251 7.95738 12.7568 6.88769 13.6137 6.88769H16.0772V9.29451H14.7384C14.3634 9.29451 14.2564 9.61541 14.2564 9.82934V11.5408H16.5592L16.1308 13.8406H14.2564V19.3495H11.5251Z" fill="white"/>
</svg>
