<svg width="24" height="23" viewBox="0 0 24 23" fill="none" xmlns="http://www.w3.org/2000/svg">
<path fill-rule="evenodd" clip-rule="evenodd" d="M19.1501 22.8588C18.76 23.0595 18.309 23.0651 17.8748 22.7523L12.5708 18.8967C12.3401 18.7516 12.1581 18.6894 11.9706 18.6894C11.7549 18.6894 11.5552 18.7327 11.3067 18.8364L6.0683 22.6807C5.65286 23.0284 5.19524 23.0227 4.78543 22.8324C4.75046 22.8163 4.71606 22.799 4.68228 22.7806C4.60363 22.7416 4.53226 22.6894 4.47128 22.6261C4.51536 22.6713 4.40939 22.5752 4.34187 22.4941C4.20448 22.3373 4.11238 22.1458 4.07552 21.9402C4.03867 21.7346 4.05845 21.5228 4.13275 21.3277L6.18739 14.9996C6.2498 14.8147 6.25101 14.6145 6.19084 14.4289C6.13067 14.2432 6.01235 14.0822 5.85355 13.9697L0.536414 10.0631C0.319405 9.92023 0.154966 9.70982 0.068256 9.46411C-0.0184543 9.21839 -0.0226616 8.9509 0.0562776 8.70255C0.16037 8.21824 0.637693 7.8093 1.23974 7.8093H7.87162C8.25892 7.8093 8.62183 7.54171 8.75406 7.16387L10.7956 0.880054C10.9709 0.258174 11.4876 0 11.9715 0C12.1957 0 12.386 0.0339208 12.613 0.17243C12.8446 0.315651 13.0218 0.537078 13.1391 0.850845L15.1834 7.14691C15.3212 7.54171 15.6841 7.8093 16.0714 7.8093H22.6621C23.0869 7.8093 23.4263 7.99964 23.6439 8.30304C23.7002 8.38219 23.7461 8.4651 23.7714 8.51975C24.0471 8.97203 23.9196 9.66929 23.3935 10.0443L18.0511 13.9697C17.8901 14.0844 17.7708 14.2489 17.7114 14.438C17.652 14.6272 17.6557 14.8306 17.7219 15.0175L19.7475 21.305C20.0194 21.9448 19.7044 22.5771 19.2317 22.8136C19.2052 22.8299 19.178 22.845 19.1501 22.8588Z" fill="#FABB05"/>
</svg>
