<svg width="50" height="36" viewBox="0 0 50 36" fill="none" xmlns="http://www.w3.org/2000/svg">
<path d="M44.2065 0.0732422H5.79345C2.64484 0.0732422 0 2.71808 0 5.86669V29.6702C0 32.9448 2.64484 35.4637 5.79345 35.4637H44.2065C47.3552 35.4637 50 32.8188 50 29.6702V5.86669C50 2.71808 47.4811 0.0732422 44.2065 0.0732422Z" fill="white"/>
<path d="M23.6776 18.3354V23.6251H22.0403V10.5269H26.4483C27.5818 10.5269 28.5894 10.9047 29.3451 11.6604C30.1007 12.416 30.6045 13.2976 30.6045 14.4311C30.6045 15.5646 30.2267 16.4463 29.3451 17.2019C28.5894 17.9576 27.5818 18.3354 26.4483 18.3354H23.6776ZM23.6776 12.0382V16.5722H26.4483C27.0781 16.5722 27.7078 16.3203 28.0856 15.9425C28.5894 15.4387 28.7153 14.9349 28.7153 14.3052C28.7153 13.6755 28.4635 13.1717 28.0856 12.6679C27.7078 12.2901 27.204 12.1641 26.4483 12.1641L23.6776 12.0382ZM34.8866 14.3052C36.1461 14.3052 37.1536 14.683 37.7834 15.3127C38.4131 15.9425 38.9169 16.95 38.9169 18.0835V23.6251H37.2796V22.3656H37.1536C36.5239 23.3732 35.5164 23.877 34.3829 23.877C33.3753 23.877 32.6196 23.6251 31.864 22.9954C31.2342 22.3656 30.8564 21.7359 30.8564 20.8543C30.8564 19.9727 31.2342 19.217 31.864 18.5873C32.6196 18.0835 33.5012 17.7057 34.6347 17.7057C35.6423 17.7057 36.398 17.8316 37.1536 18.2095V17.8316C37.1536 17.2019 36.9017 16.6981 36.5239 16.3203C36.0201 15.9425 35.5164 15.6906 34.8866 15.6906C34.005 15.6906 33.2494 16.0684 32.6196 16.8241L31.1083 15.9425C32.1159 14.9349 33.3753 14.3052 34.8866 14.3052ZM32.7456 20.8543C32.7456 21.2321 32.8715 21.61 33.2494 21.9878C33.6272 22.2397 34.005 22.3656 34.5088 22.3656C35.2645 22.3656 35.8942 22.1138 36.398 21.61C36.9017 21.1062 37.2796 20.4765 37.2796 19.7208C36.7758 19.343 36.0201 19.0911 35.1385 19.0911C34.5088 19.0911 33.8791 19.217 33.3753 19.5949C32.9975 19.9727 32.7456 20.3505 32.7456 20.8543ZM48.1108 14.5571L42.5692 27.5294H40.806L42.9471 22.9954L39.2947 14.5571H41.1839L43.8287 20.9803L46.4735 14.5571H48.1108Z" fill="#3C4043"/>
<path d="M17.0025 17.2017C17.0025 16.698 17.0025 16.0682 16.8766 15.5645H9.82367V18.4612H13.8539C13.728 19.4687 13.0982 20.2244 12.3426 20.8541V22.7433H14.7355C16.1209 21.4838 17.0025 19.4687 17.0025 17.2017Z" fill="#4285F4"/>
<path d="M12.3426 20.8544C11.7129 21.3582 10.8312 21.61 9.82368 21.61C7.80857 21.61 6.17129 20.3506 5.66751 18.4614H3.14862V20.3506C4.40807 22.7435 6.92696 24.5068 9.82368 24.5068C11.8388 24.5068 13.602 23.877 14.7355 22.7435L12.3426 20.8544Z" fill="#34A853"/>
<path d="M5.41561 17.0758C5.41561 16.5721 5.54156 16.0683 5.6675 15.6904V13.8013H3.14861C2.64483 14.8088 2.39294 15.9423 2.39294 17.2018C2.39294 18.4612 2.64483 19.5947 3.14861 20.6023L5.6675 18.7131C5.41561 17.9574 5.41561 17.5796 5.41561 17.0758Z" fill="#FABB05"/>
<path d="M9.82368 12.5417C10.9572 12.5417 11.9647 12.9195 12.7204 13.6752L14.8615 11.5342C13.602 10.2747 11.8388 9.51904 9.82368 9.51904C6.92696 9.51904 4.40807 11.1563 3.14862 13.6752L5.66751 15.5644C6.17129 13.8012 7.80857 12.5417 9.82368 12.5417Z" fill="#E94235"/>
</svg>
