<svg width="24" height="23" viewBox="0 0 24 23" fill="none" xmlns="http://www.w3.org/2000/svg">
<path fill-rule="evenodd" clip-rule="evenodd" d="M19.237 22.8588C18.8469 23.0595 18.3959 23.0651 17.9617 22.7523L12.6577 18.8967C12.427 18.7516 12.2451 18.6894 12.0575 18.6894C11.8418 18.6894 11.6421 18.7327 11.3936 18.8364L6.15521 22.6807C5.73978 23.0284 5.28215 23.0227 4.87234 22.8324C4.83738 22.8163 4.80297 22.799 4.76919 22.7806C4.69055 22.7416 4.61917 22.6894 4.55819 22.6261C4.60227 22.6713 4.4963 22.5752 4.42878 22.4941C4.2914 22.3373 4.19929 22.1458 4.16244 21.9402C4.12558 21.7346 4.14537 21.5228 4.21966 21.3277L6.2743 14.9996C6.33671 14.8147 6.33792 14.6145 6.27775 14.4289C6.21758 14.2432 6.09926 14.0822 5.94046 13.9697L0.623328 10.0631C0.406318 9.92023 0.24188 9.70982 0.15517 9.46411C0.0684598 9.21839 0.0642525 8.9509 0.143192 8.70255C0.247284 8.21824 0.724607 7.8093 1.32665 7.8093H7.95853C8.34583 7.8093 8.70874 7.54171 8.84097 7.16387L10.8825 0.880054C11.0578 0.258174 11.5746 0 12.0584 0C12.2826 0 12.4729 0.0339208 12.6999 0.17243C12.9315 0.315651 13.1087 0.537078 13.226 0.850845L15.2703 7.14691C15.4081 7.54171 15.7711 7.8093 16.1584 7.8093H22.749C23.1738 7.8093 23.5133 7.99964 23.7308 8.30304C23.7871 8.38219 23.833 8.4651 23.8583 8.51975C24.1341 8.97203 24.0065 9.66929 23.4804 10.0443L18.138 13.9697C17.977 14.0844 17.8577 14.2489 17.7983 14.438C17.7389 14.6272 17.7426 14.8306 17.8088 15.0175L19.8344 21.305C20.1064 21.9448 19.7913 22.5771 19.3186 22.8136C19.2921 22.8299 19.2649 22.845 19.237 22.8588Z" fill="#858585"/>
<path d="M11.7926 0.0264264V18.713C11.6676 18.7357 11.5389 18.7757 11.3936 18.8364L6.15521 22.6807C5.73978 23.0284 5.28215 23.0227 4.87234 22.8324C4.83738 22.8163 4.80297 22.799 4.76919 22.7806C4.69171 22.7422 4.62128 22.6909 4.56091 22.6289C4.59759 22.667 4.4948 22.5734 4.42878 22.4941C4.2914 22.3373 4.19929 22.1458 4.16244 21.9402C4.12558 21.7346 4.14537 21.5228 4.21966 21.3277L6.2743 14.9996C6.33671 14.8147 6.33792 14.6145 6.27775 14.4289C6.21758 14.2432 6.09926 14.0822 5.94046 13.9697L0.623328 10.0631C0.406318 9.92023 0.24188 9.70982 0.15517 9.46411C0.0684598 9.21839 0.0642525 8.9509 0.143192 8.70255C0.247284 8.21824 0.724607 7.8093 1.32665 7.8093H7.95853C8.34583 7.8093 8.70874 7.54171 8.84097 7.16387L10.8825 0.880054C11.0259 0.371643 11.3974 0.106322 11.7926 0.0264264Z" fill="#FABB05"/>
</svg>
