<svg width="28" height="26" viewBox="0 0 28 26" fill="none" xmlns="http://www.w3.org/2000/svg">
<path d="M27.3249 5.62325C26.8919 4.62069 26.2676 3.71218 25.4869 2.94858C24.7056 2.1827 23.7844 1.57406 22.7735 1.15577C21.7251 0.720306 20.6008 0.49741 19.4656 0.500023C17.8731 0.500023 16.3193 0.936111 14.9691 1.75983C14.6461 1.95688 14.3392 2.17331 14.0485 2.40912C13.7577 2.17331 13.4509 1.95688 13.1278 1.75983C11.7776 0.936111 10.2238 0.500023 8.63127 0.500023C7.48452 0.500023 6.3733 0.719682 5.32346 1.15577C4.30915 1.57571 3.39498 2.17977 2.61002 2.94858C1.82828 3.71132 1.20381 4.62005 0.771988 5.62325C0.322978 6.66664 0.0936279 7.77462 0.0936279 8.91491C0.0936279 9.9906 0.313287 11.1115 0.749376 12.2518C1.1144 13.2047 1.6377 14.1932 2.30637 15.1914C3.36591 16.771 4.82276 18.4184 6.63172 20.0885C9.62943 22.8568 12.5981 24.7691 12.724 24.8467L13.4896 25.3377C13.8288 25.5541 14.2649 25.5541 14.6041 25.3377L15.3696 24.8467C15.4956 24.7659 18.461 22.8568 21.462 20.0885C23.2709 18.4184 24.7278 16.771 25.7873 15.1914C26.456 14.1932 26.9825 13.2047 27.3443 12.2518C27.7804 11.1115 28.0001 9.9906 28.0001 8.91491C28.0033 7.77462 27.7739 6.66664 27.3249 5.62325ZM14.0485 22.7825C14.0485 22.7825 2.54864 15.4142 2.54864 8.91491C2.54864 5.62325 5.27177 2.95504 8.63127 2.95504C10.9926 2.95504 13.0406 4.27299 14.0485 6.19824C15.0563 4.27299 17.1043 2.95504 19.4656 2.95504C22.8251 2.95504 25.5483 5.62325 25.5483 8.91491C25.5483 15.4142 14.0485 22.7825 14.0485 22.7825Z" fill="#1A1A1A"/>
</svg>
