<svg width="23" height="21" viewBox="0 0 23 21" fill="none" xmlns="http://www.w3.org/2000/svg">
<path d="M21.8599 4.5986C21.5135 3.79655 21.014 3.06974 20.3894 2.45886C19.7644 1.84616 19.0275 1.35925 18.2187 1.02462C17.38 0.676245 16.4806 0.497928 15.5724 0.500018C14.2984 0.500018 13.0554 0.848889 11.9752 1.50787C11.7168 1.6655 11.4713 1.83865 11.2387 2.0273C11.0061 1.83865 10.7606 1.6655 10.5022 1.50787C9.42198 0.848889 8.17897 0.500018 6.90494 0.500018C5.98754 0.500018 5.09857 0.675746 4.25869 1.02462C3.44725 1.36057 2.71591 1.84382 2.08794 2.45886C1.46255 3.06906 0.962971 3.79604 0.617517 4.5986C0.258309 5.43331 0.0748291 6.3197 0.0748291 7.23193C0.0748291 8.09248 0.250557 8.9892 0.599427 9.90144C0.891445 10.6638 1.31009 11.4546 1.84502 12.2531C2.69265 13.5168 3.85814 14.8347 5.30531 16.1708C7.70347 18.3855 10.0784 19.9153 10.1792 19.9773L10.7916 20.3701C11.063 20.5433 11.4118 20.5433 11.6832 20.3701L12.2956 19.9773C12.3964 19.9127 14.7687 18.3855 17.1695 16.1708C18.6167 14.8347 19.7821 13.5168 20.6298 12.2531C21.1647 11.4546 21.5859 10.6638 21.8754 9.90144C22.2242 8.9892 22.4 8.09248 22.4 7.23193C22.4026 6.3197 22.2191 5.43331 21.8599 4.5986Z" fill="#1A1A1A"/>
</svg>
