<svg width="25" height="26" viewBox="0 0 25 26" fill="none" xmlns="http://www.w3.org/2000/svg">
<path d="M23.1669 20.902C22.5745 19.4987 21.7147 18.2239 20.6355 17.1489C19.5596 16.0707 18.2851 15.2111 16.8824 14.6175C16.8698 14.6112 16.8573 14.608 16.8447 14.6018C18.8013 13.1884 20.0733 10.8863 20.0733 8.28894C20.0733 3.98618 16.5872 0.5 12.2844 0.5C7.98162 0.5 4.49544 3.98618 4.49544 8.28894C4.49544 10.8863 5.76743 13.1884 7.72409 14.6049C7.71152 14.6112 7.69896 14.6143 7.6864 14.6206C6.27936 15.2142 5.0168 16.0653 3.93326 17.152C2.85508 18.2279 1.99546 19.5024 1.40185 20.9052C0.81869 22.2784 0.50418 23.7508 0.475342 25.2425C0.474504 25.276 0.480383 25.3093 0.492634 25.3405C0.504885 25.3718 0.523259 25.4002 0.546675 25.4242C0.57009 25.4482 0.598072 25.4673 0.628973 25.4803C0.659874 25.4933 0.693067 25.5 0.726598 25.5H2.61102C2.74921 25.5 3.47526 25.5 3.47526 25.5H7.47526H12.4753H18.4753H20.9753C20.9753 25.5 21.8196 25.5 21.9578 25.5H23.8422C23.8757 25.5 23.9089 25.4933 23.9398 25.4803C23.9707 25.4673 23.9987 25.4482 24.0221 25.4242C24.0455 25.4002 24.0639 25.3718 24.0761 25.3405C24.0884 25.3093 24.0943 25.276 24.0934 25.2425C24.062 23.7412 23.7511 22.2808 23.1669 20.902Z" fill="#1A1A1A"/>
</svg>
