<svg width="26" height="27" viewBox="0 0 26 27" fill="none" xmlns="http://www.w3.org/2000/svg">
<path fill-rule="evenodd" clip-rule="evenodd" d="M2.04254 13.6985C2.04254 7.77315 6.84596 2.96973 12.7713 2.96973C18.6966 2.96973 23.5 7.77315 23.5 13.6985C23.5 19.6238 18.6966 24.4272 12.7713 24.4272C6.84596 24.4272 2.04254 19.6238 2.04254 13.6985ZM12.7713 0.969727C5.74139 0.969727 0.0425415 6.66858 0.0425415 13.6985C0.0425415 20.7283 5.74139 26.4272 12.7713 26.4272C19.8012 26.4272 25.5 20.7283 25.5 13.6985C25.5 6.66858 19.8012 0.969727 12.7713 0.969727ZM18.88 10.7842C18.878 8.8857 17.3395 7.34722 15.4411 7.34521H9.85716C7.95871 7.34722 6.42022 8.8857 6.41822 10.7842V16.3681C6.42022 18.2665 7.95871 19.805 9.85716 19.807H15.4411C17.3395 19.805 18.878 18.2665 18.88 16.3681V10.7842ZM9.85716 8.45068H15.4411C16.7292 8.45211 17.7731 9.49603 17.7745 10.7842V16.3681C17.7731 17.6562 16.7292 18.7001 15.4411 18.7015H9.85716C8.56903 18.7001 7.52511 17.6562 7.52368 16.3681V10.7842C7.52511 9.49603 8.56903 8.45211 9.85716 8.45068ZM15.7645 13.5761C15.7645 11.8584 14.3668 10.4607 12.6491 10.4607C10.9314 10.4607 9.53368 11.8584 9.53368 13.5761C9.53368 15.2942 10.9314 16.6915 12.6491 16.6915C14.3668 16.6915 15.7645 15.2942 15.7645 13.5761ZM10.6064 13.5761C10.6076 12.4485 11.5215 11.5346 12.6491 11.5334C13.7767 11.5346 14.6907 12.4485 14.6918 13.5761C14.6907 14.7037 13.7767 15.6176 12.6491 15.6188C11.5215 15.6176 10.6076 14.7037 10.6064 13.5761ZM16.5746 9.65061C16.4285 9.50479 16.2306 9.42269 16.0242 9.42214C15.5949 9.42417 15.2473 9.77173 15.2453 10.201C15.2453 10.4056 15.3284 10.6066 15.4737 10.7514C15.6186 10.8968 15.8196 10.9799 16.0242 10.9799C16.4536 10.9782 16.8014 10.6305 16.803 10.201C16.803 9.99591 16.72 9.79449 16.5746 9.65061Z" fill="white"/>
</svg>
