<svg width="60" height="60" viewBox="0 0 60 60" fill="none" xmlns="http://www.w3.org/2000/svg">
<path d="M59.9939 21.2025V49.3374C59.9939 52.4114 57.4031 54.9047 54.2545 54.8185C51.2152 54.7341 48.8358 52.2019 48.8358 49.2136V21.2025C48.8358 20.7539 49.2066 20.3878 49.665 20.3878H51.9309C52.3889 20.3878 52.7597 20.752 52.7597 21.2025V49.2727C52.7597 50.1145 53.4553 50.9095 54.3122 50.9625C55.275 51.0211 56.0761 50.2692 56.0761 49.3374V21.2025C56.0761 20.7539 56.4469 20.3878 56.9048 20.3878H59.1708C59.6292 20.3878 60 20.752 60 21.2025H59.9939ZM9.86109 40.9477H0.82875C0.370313 40.9477 0 41.3119 0 41.7624V44.0067C0 44.4553 0.370313 44.8195 0.829219 44.8195H3.42375V59.1853C3.42375 59.6358 3.79406 60 4.25297 60H6.44109C6.89719 60 7.26984 59.6358 7.26984 59.1853V44.8195H9.86484C10.3209 44.8195 10.6941 44.4553 10.6941 44.0049V41.7605C10.6941 41.3105 10.3233 40.9458 9.86438 40.9458L9.86109 40.9477ZM47.7797 29.993C47.7797 35.4117 43.2938 39.818 37.7812 39.818H37.65C32.1375 39.818 27.6516 35.4099 27.6516 29.993C27.6516 24.5766 32.1375 20.168 37.65 20.168H37.7812C43.2956 20.168 47.7797 24.5766 47.7797 29.993ZM43.9294 29.993C43.9294 26.6639 41.1712 23.9517 37.7812 23.9517H37.6453C34.2577 23.9517 31.5 26.662 31.5 29.993C31.5 33.3244 34.2562 36.0324 37.6453 36.0324H37.7812C41.1694 36.0324 43.9294 33.3244 43.9294 29.993ZM59.1652 56.1441H49.6627C49.2047 56.1441 48.8339 56.5083 48.8339 56.9588V59.1853C48.8339 59.6358 49.2047 60 49.6627 60H59.1652C59.6231 60 59.9939 59.6358 59.9939 59.1853V56.9588C59.9939 56.5083 59.6231 56.1441 59.1652 56.1441ZM0.829219 19.0406H5.34094C5.7975 19.0406 6.17016 18.6764 6.17016 18.226V15.9994C6.17016 15.5508 5.79938 15.1847 5.34094 15.1847H3.92203V0.814706C3.92203 0.364237 3.55172 1.86285e-05 3.09281 1.86285e-05H0.82875C0.37125 1.86285e-05 0 0.364237 0 0.814706V18.2278C0 18.6764 0.370313 19.0425 0.829219 19.0425V19.0406ZM52.7559 3.85408H59.1652C59.6231 3.85408 59.9939 3.48986 59.9939 3.03939V0.814706C59.9939 0.364237 59.6231 1.86285e-05 59.1652 1.86285e-05H49.6627C49.2047 1.86285e-05 48.8339 0.364237 48.8339 0.814706V18.2278C48.8339 18.6764 49.2047 19.0425 49.6627 19.0425H59.1652C59.6231 19.0425 59.9939 18.6783 59.9939 18.2278V16.0013C59.9939 15.5527 59.6231 15.1866 59.1652 15.1866H52.7559V11.4516H58.8581C59.3166 11.4516 59.6873 11.0874 59.6873 10.6369V8.41033C59.6873 7.96174 59.3166 7.59564 58.8581 7.59564H52.7559V3.85408ZM7.27219 18.0047L12.637 0.589237C12.6912 0.417461 12.799 0.267564 12.9446 0.161526C13.0902 0.0554877 13.266 -0.00111441 13.4461 1.86285e-05H16.298C16.4692 -0.00113203 16.6366 0.0510494 16.7769 0.149324C16.9172 0.247598 17.0234 0.387093 17.0808 0.548456L23.2078 17.9531C23.3972 18.4917 22.9903 19.0538 22.4086 19.0538H20.0344C19.8632 19.0546 19.696 19.0023 19.5558 18.904C19.4156 18.8058 19.3093 18.6665 19.2516 18.5053L18.4242 16.1555C18.3652 15.9912 18.2566 15.8493 18.1134 15.7493C17.9702 15.6494 17.7996 15.5964 17.625 15.5977H12.7345C12.3619 15.5977 12.0333 15.8363 11.9255 16.1869L11.22 18.4744C11.1666 18.6426 11.0609 18.7894 10.9182 18.8933C10.7755 18.9972 10.6034 19.0528 10.4269 19.0519H8.05969C7.50328 19.0519 7.10484 18.525 7.26609 18.0019L7.27219 18.0047ZM13.2984 11.746H16.8741L15.2039 7.0008C15.1298 6.78939 14.8233 6.79549 14.7572 7.00877L13.2984 11.7441V11.746ZM24.4148 18.2278V0.829706C24.4148 0.381581 24.7852 0.0150186 25.2441 0.0150186H40.4995C44.2777 0.0150186 47.5327 3.05064 47.5542 6.76174C47.5683 9.32111 46.1316 11.557 44.0072 12.7242L47.325 17.7825C47.6798 18.3235 47.2852 19.0378 46.6298 19.0378H43.9355C43.6542 19.0378 43.3913 18.8972 43.2398 18.6661L39.9075 13.5881H29.1661C28.7095 13.5881 28.3369 13.9524 28.3369 14.4028V18.2274C28.3369 18.676 27.9666 19.042 27.5081 19.042H25.2422C24.7856 19.042 24.4125 18.6778 24.4125 18.2274L24.4148 18.2278ZM28.3369 9.73643H40.6491C42.4388 9.73643 43.8675 8.17783 43.6022 6.37033C43.3894 4.91346 42.0441 3.87189 40.5436 3.87189H28.3373L28.3369 9.73643ZM0 38.7858V21.2044C0 20.7544 0.370313 20.3897 0.829219 20.3897H16.8441C22.3322 20.3897 26.7783 24.8569 26.6128 30.285C26.4558 35.5097 21.9534 39.5986 16.6345 39.5986H0.829687C0.370312 39.5986 0 39.2344 0 38.7839V38.7858ZM3.84422 35.821H16.6983C19.9092 35.821 22.6472 33.3731 22.7686 30.2185C22.8966 26.903 20.19 24.1669 16.8436 24.1669H3.84469L3.84422 35.821ZM15.8892 44.8116H46.7095C47.168 44.8116 47.5383 44.4474 47.5383 43.9969V41.7703C47.5383 41.3203 47.168 40.9556 46.7095 40.9556H12.7983C12.3422 40.9556 11.9695 41.3199 11.9695 41.7703V59.1835C11.9695 59.6339 12.3398 59.9981 12.7983 59.9981H46.7095C47.168 59.9981 47.5383 59.6339 47.5383 59.1835V56.9569C47.5383 56.5064 47.168 56.1422 46.7095 56.1422H15.8906V52.4077H46.4142C46.8722 52.4077 47.243 52.0435 47.243 51.593V49.3664C47.243 48.916 46.8727 48.5517 46.4137 48.5517H15.892V44.8055L15.8892 44.8116Z" fill="#FF3F52"/>
</svg>
