<svg width="50" height="36" viewBox="0 0 50 36" fill="none" xmlns="http://www.w3.org/2000/svg">
<path d="M44.1923 0.5H5.80769C2.60019 0.5 0 3.11752 0 6.34641V30.0805C0 33.3094 2.60019 35.9269 5.80769 35.9269H44.1923C47.3998 35.9269 50 33.3094 50 30.0805V6.34641C50 3.11752 47.3998 0.5 44.1923 0.5Z" fill="white"/>
<path d="M29.7495 26.5773H20.4995V9.36719H29.7495V26.5773Z" fill="#FF5F00"/>
<path d="M21.0972 17.9608C21.0972 14.4762 22.6742 11.3594 25.1357 9.36539C23.2896 7.85539 20.9818 7.02295 18.5973 7.02295C12.6742 7.11975 7.94341 12.0176 8.02033 17.9608C7.94341 23.904 12.6742 28.8018 18.578 28.8986C21.0588 28.8986 23.328 28.0274 25.1357 26.5756C22.5588 24.4653 21.0781 21.3098 21.0972 17.9608Z" fill="#EB001B"/>
<path d="M42.2329 17.9608C42.3098 23.904 37.579 28.8018 31.6751 28.8986C29.2906 28.8986 26.9829 28.0856 25.1174 26.5756C27.6944 24.4653 29.1752 21.3098 29.1559 17.9608C29.1559 14.4762 27.579 11.3594 25.1174 9.36539C26.9637 7.85539 29.2906 7.02295 31.6751 7.02295C37.5982 7.11975 42.329 12.0176 42.2522 17.9608" fill="#F79E1B"/>
</svg>
