<svg width="50" height="36" viewBox="0 0 50 36" fill="none" xmlns="http://www.w3.org/2000/svg">
<path d="M44.2065 0.073262H5.79347C4.26233 0.0906053 2.7988 0.706553 1.71606 1.7893C0.633311 2.87204 0.0173631 4.33557 1.98183e-05 5.86671V29.6702C-0.00197417 30.4316 0.146517 31.1858 0.436958 31.8896C0.7274 32.5934 1.15407 33.2329 1.69243 33.7712C2.2308 34.3096 2.87026 34.7363 3.57405 35.0267C4.27785 35.3172 5.0321 35.4657 5.79347 35.4637H44.2065C45.7377 35.4463 47.2012 34.8304 48.2839 33.7476C49.3667 32.6649 49.9826 31.2013 50 29.6702V5.86671C50.002 5.10534 49.8535 4.35109 49.563 3.6473C49.2726 2.9435 48.8459 2.30405 48.3076 1.76568C47.7692 1.22731 47.1297 0.800642 46.4259 0.510201C45.7222 0.219759 44.9679 0.071268 44.2065 0.073262Z" fill="white"/>
<path d="M4.03021 26.5419L3.95086 27.1414C3.94342 27.2118 3.95093 27.2831 3.97289 27.3504C3.99485 27.4178 4.03078 27.4798 4.07832 27.5323C4.12587 27.5848 4.18396 27.6268 4.2488 27.6553C4.31365 27.6839 4.38379 27.6984 4.45464 27.698H23.976C24.0469 27.6984 24.117 27.6839 24.1819 27.6553C24.2467 27.6268 24.3048 27.5848 24.3524 27.5323C24.3999 27.4798 24.4358 27.4178 24.4578 27.3504C24.4797 27.2831 24.4873 27.2118 24.4798 27.1414L24.3979 26.5419C24.3746 26.3169 24.4407 26.0917 24.5822 25.9151C24.7236 25.7386 24.9289 25.6248 25.1536 25.5986C25.2645 25.5867 25.3766 25.5969 25.4835 25.6285C25.5904 25.6601 25.6901 25.7125 25.7767 25.7827C25.8633 25.8529 25.9351 25.9395 25.9882 26.0376C26.0412 26.1357 26.0743 26.2433 26.0856 26.3542L26.1612 26.9386C26.2273 27.2283 26.2283 27.5292 26.1639 27.8193C26.0995 28.1094 25.9715 28.3816 25.789 28.6162C25.6065 28.8508 25.3741 29.0418 25.1087 29.1756C24.8433 29.3093 24.5515 29.3824 24.2544 29.3895H4.17C3.87335 29.3818 3.5821 29.3083 3.31727 29.1744C3.05244 29.0406 2.82063 28.8495 2.63857 28.6152C2.45652 28.3808 2.32875 28.109 2.26449 27.8193C2.20023 27.5296 2.20108 27.2292 2.26698 26.9399L2.34255 26.3555C2.35371 26.2447 2.38664 26.1373 2.43945 26.0393C2.49226 25.9413 2.5639 25.8547 2.65027 25.7845C2.73663 25.7143 2.83602 25.6618 2.94272 25.6301C3.04942 25.5984 3.16133 25.5881 3.27202 25.5998C3.49644 25.6267 3.70134 25.7406 3.84266 25.917C3.98397 26.0934 4.05041 26.3182 4.02769 26.5431" fill="#D60510"/>
<path d="M22.0705 22.0164C22.2877 22.0277 22.5049 21.9947 22.7089 21.9195C22.9129 21.8442 23.0995 21.7282 23.2574 21.5787C23.4152 21.4291 23.541 21.2489 23.6271 21.0492C23.7132 20.8495 23.7578 20.6344 23.7582 20.417C23.721 19.9726 23.5089 19.5613 23.1687 19.2732C22.8284 18.9851 22.3877 18.8438 21.9433 18.8804H20.0327C19.8223 18.8804 19.6205 18.7968 19.4717 18.648C19.3229 18.4992 19.2393 18.2974 19.2393 18.087C19.2393 17.8765 19.3229 17.6747 19.4717 17.5259C19.6205 17.3771 19.8223 17.2935 20.0327 17.2935H21.3098C21.6977 17.3145 22.0785 17.1831 22.3709 16.9273C22.6633 16.6716 22.8443 16.3118 22.8753 15.9245C22.8765 15.7156 22.8345 15.5086 22.7522 15.3166C22.6698 15.1246 22.5487 14.9517 22.3965 14.8085C22.2442 14.6654 22.0642 14.5552 21.8674 14.4848C21.6707 14.4144 21.4616 14.3853 21.2531 14.3993H18.1549L18.1423 22.0177L22.0705 22.0164ZM24.4194 15.9195C24.4201 16.2537 24.3544 16.5847 24.226 16.8933C24.0975 17.2018 23.909 17.4817 23.6713 17.7167L23.6247 17.7734L23.6902 17.8137C24.1613 18.0717 24.5576 18.4474 24.8406 18.904C25.1235 19.3606 25.2834 19.8827 25.3048 20.4195C25.3118 20.846 25.2334 21.2696 25.0741 21.6653C24.9148 22.0611 24.6778 22.4209 24.3772 22.7235C24.0765 23.0261 23.7183 23.2655 23.3237 23.4274C22.929 23.5894 22.5059 23.6706 22.0793 23.6663H17.3627C17.1398 23.6633 16.9272 23.572 16.7716 23.4124C16.6159 23.2527 16.53 23.0379 16.5327 22.8149V13.6663C16.5312 13.556 16.5515 13.4465 16.5923 13.344C16.6332 13.2415 16.6938 13.148 16.7707 13.069C16.8477 12.9899 16.9395 12.9268 17.0408 12.8832C17.1422 12.8396 17.2511 12.8164 17.3614 12.8149L21.2544 12.8263C21.6672 12.8143 22.0783 12.8855 22.463 13.0358C22.8477 13.1861 23.1982 13.4123 23.4935 13.701C23.7889 13.9897 24.0231 14.3349 24.1822 14.716C24.3412 15.0972 24.4219 15.5065 24.4194 15.9195Z" fill="black"/>
<path d="M9.21786 20.5307L9.23927 20.5949L9.2632 20.5307C9.48234 19.9274 9.74556 19.2612 10.0189 18.5332C10.3069 17.7692 10.5944 17.0379 10.8816 16.3393C11.1687 15.6407 11.4441 15.011 11.7078 14.4501C11.8821 14.0418 12.0982 13.6527 12.3526 13.2889C12.4763 13.1382 12.6329 13.0181 12.8105 12.9377C12.9881 12.8573 13.1817 12.8189 13.3765 12.8254H13.5718C13.7939 12.8139 14.0126 12.8843 14.1864 13.0232C14.3198 13.1282 14.4095 13.279 14.4383 13.4463L15.6561 22.8985C15.6619 23.0029 15.6464 23.1074 15.6107 23.2056C15.575 23.3039 15.5198 23.3939 15.4483 23.4703C15.2836 23.6101 15.0707 23.6801 14.8551 23.6655C14.6359 23.677 14.4194 23.613 14.2418 23.4841C14.1629 23.4308 14.0966 23.3609 14.0474 23.2793C13.9983 23.1978 13.9675 23.1065 13.9571 23.0118C13.9156 22.697 13.8778 22.3481 13.84 21.9652C13.8022 21.5824 13.5957 19.9337 13.5428 19.5181C13.4899 19.1025 13.1498 16.4186 13.039 15.4489L13.0289 15.367L12.6372 16.1856C12.5113 16.4677 12.3614 16.8065 12.204 17.2007C12.0466 17.595 11.8891 18.0106 11.7317 18.4501C11.5743 18.8897 10.8073 21.0332 10.8073 21.0332C10.7367 21.2284 10.6045 21.6227 10.4849 21.9854C10.3652 22.3481 10.2519 22.6718 10.2216 22.7347C10.1294 22.914 9.98959 23.0643 9.81752 23.1693C9.64544 23.2743 9.44777 23.3299 9.24619 23.3299C9.04462 23.3299 8.84695 23.2743 8.67487 23.1693C8.5028 23.0643 8.36297 22.914 8.27075 22.7347C8.23801 22.6718 8.12718 22.3443 8.00501 21.9854C7.88285 21.6264 7.75312 21.2297 7.68007 21.0332C7.68007 21.0332 6.92441 18.8771 6.75816 18.4501C6.59191 18.0232 6.44204 17.5962 6.28461 17.2007C6.12718 16.8053 5.9836 16.4677 5.85388 16.1856L5.46093 15.367L5.45338 15.4489C5.33373 16.4186 4.99368 19.0899 4.94204 19.5181C4.8904 19.9463 4.69897 21.5824 4.64607 21.9652C4.59318 22.3481 4.56799 22.697 4.52013 23.0118C4.50952 23.1061 4.47886 23.197 4.4302 23.2785C4.38154 23.36 4.31601 23.4301 4.23801 23.4841C4.05931 23.6128 3.84208 23.6768 3.62214 23.6655C3.40725 23.6805 3.19507 23.6104 3.03146 23.4703C2.95994 23.3939 2.90446 23.3039 2.86834 23.2057C2.83221 23.1075 2.81616 23.003 2.82114 22.8985L4.04028 13.4463C4.07056 13.2796 4.16 13.1293 4.29217 13.0232C4.4659 12.8851 4.68386 12.8148 4.90552 12.8254H5.10325C5.29766 12.8191 5.49091 12.8576 5.66804 12.938C5.84516 13.0184 6.00141 13.1384 6.12466 13.2889C6.38038 13.6521 6.59695 14.0413 6.77076 14.4501C7.03356 15.0009 7.30896 15.6306 7.59695 16.3393C7.88494 17.0479 8.17336 17.7792 8.46219 18.5332C8.73927 19.2612 9.00249 19.9274 9.21786 20.5307Z" fill="black"/>
<path d="M6.82618 7.09961H21.6511C23.0478 7.09961 23.743 8.14873 23.9055 9.53034L23.9685 9.97366C23.9915 10.2009 23.924 10.428 23.7806 10.6057C23.6373 10.7835 23.4297 10.8976 23.2027 10.9233C23.0908 10.9344 22.9778 10.9234 22.8702 10.8907C22.7626 10.8581 22.6624 10.8046 22.5755 10.7333C22.4886 10.6619 22.4166 10.5741 22.3636 10.4749C22.3107 10.3756 22.2779 10.267 22.267 10.155L22.2078 9.73185C22.1448 9.2054 21.9231 8.80112 21.3891 8.80112H7.08815C6.55414 8.80112 6.33248 9.2054 6.26951 9.73185L6.21157 10.155C6.20103 10.2672 6.16835 10.3762 6.11543 10.4757C6.06252 10.5751 5.99041 10.6631 5.90328 10.7346C5.81614 10.806 5.71572 10.8595 5.6078 10.8919C5.49988 10.9242 5.38662 10.9349 5.27455 10.9233C5.0475 10.8979 4.83966 10.7839 4.69625 10.6061C4.55284 10.4282 4.48548 10.2009 4.5088 9.97366L4.57178 9.53034C4.73676 8.14495 5.43072 7.09961 6.82618 7.09961Z" fill="#D60510"/>
<path d="M33.4924 17.0608C33.3892 17.458 33.2825 17.8811 33.1725 18.3303C33.0617 18.7787 32.9496 19.2119 32.8413 19.6187C32.733 20.0255 32.6322 20.387 32.5327 20.6981C32.4709 20.9151 32.3891 21.1259 32.2884 21.3278C32.2263 21.4304 32.1365 21.5133 32.0293 21.567C31.9221 21.6207 31.8019 21.643 31.6826 21.6313C31.576 21.6275 31.4702 21.6105 31.3677 21.581C31.2977 21.5602 31.2327 21.5252 31.1768 21.4782C31.1209 21.4311 31.0753 21.3731 31.0428 21.3077C30.941 21.0924 30.8596 20.8681 30.7997 20.6376C30.7015 20.3064 30.6007 19.9273 30.4899 19.4941C30.3791 19.0608 30.2758 18.6049 30.1662 18.1225C30.0567 17.6402 29.9597 17.1943 29.8728 16.7774C29.7859 16.3606 29.7128 16.0104 29.6562 15.7195C29.5995 15.4286 29.5667 15.256 29.5592 15.1968C29.5532 15.172 29.5494 15.1467 29.5478 15.1213V15.0772C29.5461 15.02 29.5579 14.9632 29.5825 14.9115C29.607 14.8598 29.6435 14.8147 29.6889 14.78C29.7873 14.7024 29.91 14.6623 30.0352 14.6666C30.146 14.662 30.2556 14.6905 30.3501 14.7485C30.4405 14.8188 30.5015 14.9203 30.5214 15.0331C30.5214 15.047 30.5428 15.159 30.5806 15.348C30.6184 15.5369 30.6725 15.79 30.733 16.091C30.7934 16.392 30.8589 16.7308 30.9395 17.1061C31.0201 17.4815 31.0932 17.8618 31.1776 18.2396C31.2619 18.6175 31.3438 18.9953 31.4295 19.3568C31.5151 19.7182 31.5894 20.0255 31.6625 20.2837C31.7338 20.0394 31.8136 19.7602 31.9017 19.4462C31.9874 19.1339 32.0755 18.8089 32.1612 18.4764C32.2468 18.1439 32.33 17.8077 32.4131 17.4689C32.4962 17.1301 32.5655 16.8228 32.636 16.5356C32.7065 16.2485 32.7619 15.9928 32.8123 15.7699C32.8627 15.547 32.9017 15.3807 32.932 15.2661C32.961 15.1372 33.0341 15.0224 33.1387 14.9417C33.2434 14.861 33.3729 14.8193 33.505 14.824C33.6462 14.8195 33.7846 14.864 33.8967 14.95C33.9947 15.0312 34.0625 15.143 34.0894 15.2674C34.17 15.6213 34.2556 16.0155 34.3501 16.4512C34.4446 16.887 34.5415 17.3328 34.6423 17.7724C34.7431 18.2119 34.8501 18.654 34.9559 19.0847C35.0617 19.5155 35.17 19.892 35.2708 20.2182C35.3425 19.9601 35.4219 19.649 35.505 19.2913C35.5881 18.9336 35.6713 18.5595 35.7569 18.1779C35.8425 17.7963 35.9269 17.4223 36.0088 17.0444C36.0907 16.6666 36.1612 16.3341 36.2279 16.0369C36.2947 15.7397 36.3451 15.4953 36.3841 15.3089C36.4232 15.1225 36.4433 15.0243 36.4433 15.0167C36.464 14.9036 36.526 14.8022 36.6171 14.7321C36.7114 14.6737 36.8212 14.6452 36.932 14.6502C37.0567 14.6463 37.1789 14.6864 37.2771 14.7636C37.3223 14.7985 37.3587 14.8436 37.3832 14.8953C37.4077 14.9469 37.4197 15.0037 37.4181 15.0608V15.1049C37.4171 15.1303 37.4137 15.1556 37.408 15.1805C37.4017 15.2397 37.3665 15.4109 37.3035 15.7031C37.2405 15.9953 37.17 16.3492 37.0844 16.7611C36.9987 17.1729 36.8992 17.6213 36.7897 18.0999C36.6801 18.5784 36.5768 19.0344 36.4735 19.4651C36.3703 19.8958 36.267 20.2774 36.1687 20.6049C36.1088 20.8331 36.027 21.0549 35.9244 21.2674C35.8571 21.4028 35.7389 21.506 35.5957 21.5545C35.4922 21.5884 35.3846 21.6083 35.2758 21.6137C35.2336 21.6123 35.1916 21.6085 35.1499 21.6024C35.0874 21.5933 35.0258 21.5785 34.966 21.5583C34.894 21.5445 34.8247 21.5195 34.7607 21.484C34.6937 21.4354 34.6411 21.3697 34.6083 21.2938C34.5134 21.0738 34.4355 20.8469 34.3753 20.615C34.2846 20.2976 34.1876 19.9412 34.0818 19.5407C33.9761 19.1402 33.874 18.7233 33.7733 18.2875C33.6725 17.8517 33.5768 17.4437 33.4924 17.0633" fill="black"/>
<path d="M39.1562 19.6402C39.0466 19.9878 38.9521 20.3051 38.869 20.5998C38.7859 20.8946 38.7078 21.1376 38.636 21.324C38.6029 21.4222 38.538 21.5065 38.4515 21.5636C38.365 21.6206 38.262 21.6471 38.1587 21.6389C38.0926 21.6446 38.026 21.6363 37.9633 21.6146C37.9006 21.5929 37.8432 21.5583 37.7947 21.5129C37.7175 21.4247 37.677 21.3102 37.6814 21.193C37.6813 21.1452 37.6885 21.0977 37.7028 21.052C37.7179 21.0117 37.7632 20.8618 37.8388 20.6112C37.9144 20.3606 38.0126 20.047 38.1373 19.6716C38.262 19.2963 38.3955 18.887 38.5416 18.4424C38.6876 17.9978 38.8426 17.5608 39.0025 17.1187C39.1625 16.6767 39.3174 16.2762 39.4685 15.9009C39.5898 15.5883 39.7307 15.2838 39.8904 14.989C39.935 14.8796 40.0178 14.7901 40.1234 14.7371C40.3833 14.6465 40.6669 14.65 40.9244 14.7472C40.9793 14.7721 41.0285 14.8082 41.0688 14.853C41.1092 14.8979 41.1397 14.9506 41.1587 15.0079C41.2607 15.2233 41.3829 15.5117 41.5214 15.8757C41.6599 16.2396 41.8111 16.6313 41.9647 17.0533C42.1184 17.4752 42.2733 17.9046 42.4257 18.3417C42.5781 18.7787 42.7179 19.1905 42.8426 19.5684C42.9672 19.9462 43.0781 20.2674 43.1675 20.5344C43.2569 20.8014 43.3149 20.9726 43.3363 21.0495C43.3499 21.0957 43.3571 21.1436 43.3577 21.1918C43.3602 21.2508 43.3503 21.3096 43.3286 21.3645C43.3069 21.4194 43.2739 21.4691 43.2317 21.5104C43.127 21.6 42.9914 21.6452 42.8539 21.6364C42.7541 21.6437 42.655 21.6142 42.5756 21.5532C42.5087 21.4893 42.4589 21.4096 42.4307 21.3215C42.3589 21.1351 42.2733 20.892 42.1788 20.5973C42.0844 20.3026 41.9786 19.9852 41.8703 19.6376L39.1562 19.6402ZM41.5617 18.7006C41.4093 18.2334 41.2657 17.8026 41.1285 17.4122C40.9912 17.0218 40.8501 16.6465 40.7053 16.2938C40.67 16.2157 40.6322 16.125 40.5919 16.018C40.5516 15.9109 40.529 15.853 40.5214 15.8303C40.492 15.887 40.4684 15.9465 40.4509 16.0079C40.4106 16.1187 40.3728 16.2145 40.3375 16.2925C40.1939 16.6452 40.0529 17.0192 39.9181 17.4109C39.7834 17.8026 39.6423 18.2321 39.4924 18.6993H41.5617V18.7006Z" fill="black"/>
<path d="M45.2317 18.9156C45.1941 18.879 45.1595 18.8394 45.1284 18.7972C45.0907 18.7496 45.0562 18.6995 45.0251 18.6473C44.9231 18.5038 44.8161 18.33 44.6952 18.1234C44.5742 17.9169 44.4584 17.7053 44.3324 17.4723C44.2065 17.2393 44.0994 17.0075 43.9886 16.7745C43.8778 16.5415 43.7732 16.3249 43.6851 16.1247C43.5969 15.9244 43.5163 15.7468 43.4521 15.6007C43.4031 15.5012 43.3631 15.3975 43.3324 15.2909C43.3186 15.2556 43.3098 15.2279 43.3047 15.2103C43.2997 15.1927 43.3047 15.165 43.3047 15.1284C43.3033 15.0682 43.3145 15.0084 43.3377 14.9529C43.3609 14.8973 43.3956 14.8473 43.4395 14.806C43.5438 14.7157 43.6797 14.6704 43.8173 14.6801C43.8735 14.6748 43.9302 14.6817 43.9835 14.7004C44.0368 14.7191 44.0853 14.7491 44.1259 14.7884C44.1818 14.8532 44.2273 14.9262 44.2607 15.005C44.2745 15.0428 44.3098 15.1196 44.3639 15.2418C44.4181 15.364 44.4836 15.5164 44.5629 15.6952C44.6423 15.874 44.7329 16.073 44.8337 16.2884C44.9345 16.5038 45.0377 16.7179 45.1435 16.9269C45.2493 17.136 45.3501 17.3337 45.447 17.5252C45.5282 17.6879 45.6203 17.8448 45.7229 17.9949C45.8861 17.7409 46.0345 17.4777 46.1675 17.2065C46.3249 16.8891 46.4773 16.5768 46.6208 16.2682C46.7644 15.9597 46.8891 15.6839 46.9987 15.4471C47.1083 15.2103 47.1649 15.0617 47.1889 15.005C47.2227 14.9261 47.2681 14.8526 47.3236 14.7871C47.3643 14.7481 47.4129 14.7183 47.4662 14.6998C47.5194 14.6813 47.5761 14.6746 47.6322 14.6801C47.7698 14.6704 47.9057 14.7157 48.01 14.806C48.054 14.8474 48.0888 14.8977 48.112 14.9534C48.1353 15.0092 48.1464 15.0693 48.1448 15.1297C48.1466 15.1565 48.1466 15.1835 48.1448 15.2103C48.1448 15.2279 48.1309 15.2556 48.1196 15.2909L47.9936 15.6045C47.9332 15.7556 47.8551 15.9332 47.7644 16.1335C47.6737 16.3337 47.5742 16.5541 47.4634 16.7871C47.3526 17.0201 47.2355 17.2531 47.1171 17.4836C46.9987 17.7141 46.8778 17.9345 46.7581 18.1423C46.6385 18.3501 46.5289 18.5277 46.4282 18.6713C46.3678 18.7619 46.2987 18.8463 46.2216 18.9232V21.1587C46.2243 21.2234 46.2137 21.2881 46.1903 21.3486C46.1669 21.409 46.1312 21.464 46.0856 21.5101C45.9895 21.5977 45.8642 21.6462 45.7342 21.6462C45.6042 21.6462 45.4789 21.5977 45.3828 21.5101C45.3372 21.464 45.3015 21.409 45.2781 21.3486C45.2547 21.2881 45.2441 21.2234 45.2468 21.1587V18.9156H45.2317Z" fill="black"/>
</svg>
