<svg width="50" height="36" viewBox="0 0 50 36" fill="none" xmlns="http://www.w3.org/2000/svg">
<path d="M44.2065 0.50002H5.79347C4.26233 0.517363 2.7988 1.13331 1.71606 2.21606C0.633311 3.2988 0.0173631 4.76233 1.98183e-05 6.29347V30.097C-0.00197417 30.8583 0.146517 31.6126 0.436958 32.3164C0.7274 33.0202 1.15407 33.6596 1.69243 34.198C2.2308 34.7364 2.87026 35.163 3.57405 35.4535C4.27785 35.7439 5.0321 35.8924 5.79347 35.8904H44.2065C45.7377 35.8731 47.2012 35.2571 48.2839 34.1744C49.3667 33.0916 49.9826 31.6281 50 30.097V6.29347C50.002 5.5321 49.8535 4.77785 49.563 4.07405C49.2726 3.37026 48.8459 2.7308 48.3076 2.19243C47.7692 1.65407 47.1297 1.2274 46.4259 0.936958C45.7222 0.646517 44.9679 0.498026 44.2065 0.50002Z" fill="white"/>
<path d="M32.7141 10.5757H28.641C28.4247 10.5763 28.2174 10.6625 28.0643 10.8154C27.9111 10.9682 27.8247 11.1754 27.8237 11.3918V20.6941C27.8316 20.9073 27.9233 21.1088 28.079 21.2548C28.2346 21.4008 28.4416 21.4794 28.6549 21.4737H33.5441C34.3581 21.4971 35.1484 21.1979 35.7427 20.6411C36.3369 20.0843 36.687 19.3152 36.7166 18.5014C36.7063 17.9363 36.5348 17.386 36.2225 16.915C35.9102 16.4441 35.4699 16.072 34.9534 15.8427C35.3773 15.4036 35.6625 14.8494 35.7734 14.2492C35.8844 13.649 35.8163 13.0295 35.5775 12.4678C35.3387 11.9062 34.9398 11.4272 34.4306 11.0907C33.9214 10.7543 33.3244 10.5751 32.7141 10.5757ZM35.0012 18.3276C35.0003 18.7315 34.8394 19.1187 34.5539 19.4045C34.2683 19.6903 33.8813 19.8514 33.4773 19.8528H29.5113V12.1286H32.6385C33.0114 12.1273 33.371 12.2672 33.6449 12.5202C33.9189 12.7732 34.0869 13.1204 34.1153 13.4923C34.1437 13.8641 34.0303 14.2328 33.798 14.5245C33.5656 14.8161 33.2315 15.009 32.8627 15.0643V15.082H31.3098C31.1945 15.0776 31.0795 15.0965 30.9716 15.1375C30.8638 15.1786 30.7654 15.241 30.6822 15.321C30.5991 15.4011 30.5329 15.497 30.4877 15.6032C30.4426 15.7094 30.4193 15.8236 30.4193 15.939C30.4193 16.0544 30.4426 16.1686 30.4877 16.2748C30.5329 16.381 30.5991 16.477 30.6822 16.557C30.7654 16.637 30.8638 16.6995 30.9716 16.7405C31.0795 16.7816 31.1945 16.8005 31.3098 16.7961H32.8627H33.4773C33.8818 16.7971 34.2694 16.9585 34.5551 17.2449C34.8408 17.5313 35.0012 17.9193 35.0012 18.3238V18.3276Z" fill="#1A171B"/>
<path d="M18.3728 32.7761C18.6846 32.7757 18.9837 32.6517 19.2042 32.4312C19.4247 32.2106 19.5488 31.9116 19.5491 31.5997V30.1803C19.5516 30.1443 19.5466 30.1082 19.5346 30.0742C19.5225 30.0401 19.5036 30.009 19.4789 29.9826C19.4543 29.9562 19.4245 29.9351 19.3914 29.9207C19.3583 29.9064 19.3226 29.8989 19.2865 29.8989C19.2504 29.8989 19.2147 29.9064 19.1816 29.9207C19.1485 29.9351 19.1187 29.9562 19.094 29.9826C19.0694 30.009 19.0505 30.0401 19.0384 30.0742C19.0263 30.1082 19.0214 30.1443 19.0239 30.1803V31.5972C19.0229 31.7703 18.9537 31.936 18.8314 32.0583C18.709 32.1807 18.5433 32.2499 18.3702 32.2509C18.197 32.2502 18.031 32.1812 17.9083 32.0588C17.7857 31.9364 17.7163 31.7705 17.7153 31.5972V30.1803C17.7153 30.1109 17.6877 30.0442 17.6386 29.9951C17.5895 29.946 17.5228 29.9184 17.4534 29.9184C17.3839 29.9184 17.3173 29.946 17.2681 29.9951C17.219 30.0442 17.1914 30.1109 17.1914 30.1803V31.5972C17.1917 31.9091 17.3158 32.2081 17.5363 32.4286C17.7568 32.6492 18.0559 32.7732 18.3677 32.7735L18.3728 32.7761Z" fill="#1A171B"/>
<path d="M21.505 32.7761C21.5745 32.7761 21.6411 32.7485 21.6902 32.6993C21.7394 32.6502 21.767 32.5836 21.767 32.5141C21.767 32.4446 21.7394 32.378 21.6902 32.3289C21.6411 32.2797 21.5745 32.2521 21.505 32.2521H20.7808C20.6587 32.2515 20.5417 32.2027 20.4552 32.1165C20.3687 32.0302 20.3196 31.9133 20.3186 31.7912V30.1803C20.3211 30.1443 20.3162 30.1082 20.3041 30.0742C20.292 30.0401 20.2731 30.009 20.2485 29.9826C20.2238 29.9562 20.194 29.9351 20.1609 29.9207C20.1278 29.9064 20.0921 29.8989 20.056 29.8989C20.0199 29.8989 19.9842 29.9064 19.9511 29.9207C19.918 29.9351 19.8882 29.9562 19.8636 29.9826C19.8389 30.009 19.82 30.0401 19.8079 30.0742C19.7959 30.1082 19.7909 30.1443 19.7934 30.1803V31.7899C19.7944 32.0507 19.8985 32.3005 20.0831 32.4848C20.2676 32.6691 20.5175 32.7729 20.7783 32.7735H21.5025L21.505 32.7761Z" fill="#1A171B"/>
<path d="M14.8791 21.6195C15.1378 21.647 15.3968 21.5706 15.5992 21.4072C15.8016 21.2437 15.9308 21.0066 15.9584 20.7479L16.762 13.3499L19.6133 20.5905V20.6043L19.6196 20.6169V20.6295V20.6396V20.6522V20.6635L19.6284 20.6812L19.6373 20.6963V20.7051C19.6664 20.7585 19.701 20.8087 19.7405 20.855L19.7695 20.8865L19.7922 20.9116L19.8174 20.9343L19.8501 20.9633C19.8969 21.0025 19.947 21.0375 20 21.0678H20.0088L20.0239 21.0754L20.0415 21.0842H20.0478H20.0604H20.0705H20.0818L20.0932 21.0905H20.107H20.1196C20.2221 21.1308 20.3307 21.1534 20.4408 21.1572H20.5126C20.6105 21.154 20.7074 21.1357 20.7997 21.1031H20.8073H20.8211H20.8287H20.8388H20.8489H20.8589H20.8703H20.8816H20.8929H20.9043H20.9118L20.9295 21.0943L20.9483 21.0842C21.0094 21.0484 21.0664 21.0062 21.1184 20.9582L21.1335 20.9457C21.2135 20.8706 21.2807 20.7829 21.3325 20.6862L21.4106 20.6736V20.6661V20.6509V20.6421V20.627V20.6119L21.4194 20.593V20.5867L24.2922 13.3462L25.0957 20.7441C25.1233 21.003 25.2525 21.2403 25.4551 21.4039C25.6576 21.5675 25.9168 21.6439 26.1757 21.6163C26.4345 21.5887 26.6719 21.4595 26.8354 21.2569C26.999 21.0544 27.0754 20.7952 27.0478 20.5363L26.0995 11.8147V11.8122C26.0884 11.7096 26.0674 11.6083 26.0365 11.5099C26.0058 11.412 25.9662 11.3171 25.9181 11.2265C25.7961 10.9992 25.622 10.8039 25.4102 10.6566C25.1983 10.5093 24.9546 10.4141 24.699 10.3789H24.6461C24.5624 10.3703 24.4782 10.3682 24.3942 10.3726C24.2945 10.3766 24.1955 10.3897 24.0982 10.4117C23.842 10.4704 23.604 10.591 23.4052 10.7629C23.2063 10.9348 23.0525 11.1528 22.9572 11.3978L20.529 17.554L18.1007 11.3915C18.0063 11.1473 17.8536 10.9299 17.6561 10.7581C17.4586 10.5862 17.2221 10.4652 16.9672 10.4054C16.8695 10.3834 16.7701 10.3704 16.67 10.3663C16.586 10.3625 16.5018 10.3647 16.4181 10.3726H16.364C16.1081 10.4069 15.864 10.5017 15.652 10.6491C15.44 10.7965 15.2661 10.9923 15.1448 11.2202C15.0465 11.4017 14.9845 11.6006 14.9622 11.8059V11.8122L14.0138 20.5338C13.9991 20.6619 14.0099 20.7917 14.0454 20.9157C14.081 21.0397 14.1406 21.1554 14.221 21.2563C14.3014 21.3572 14.4009 21.4412 14.5139 21.5035C14.6268 21.5658 14.7509 21.6052 14.8791 21.6195Z" fill="#1A171B"/>
<path d="M13.7532 32.7735C13.8223 32.7817 13.8918 32.7622 13.9466 32.7192C14.0013 32.6763 14.0368 32.6134 14.0453 32.5443L14.2695 30.6552L15.0705 32.5128C15.0908 32.5598 15.1244 32.5998 15.1671 32.628C15.2099 32.6561 15.2599 32.6711 15.3111 32.6711C15.3623 32.6711 15.4123 32.6561 15.4551 32.628C15.4978 32.5998 15.5314 32.5598 15.5516 32.5128L16.3526 30.6552L16.5781 32.5443C16.5877 32.6121 16.6234 32.6735 16.6777 32.7152C16.7319 32.757 16.8003 32.7759 16.8683 32.7678C16.9363 32.7597 16.9985 32.7254 17.0414 32.6721C17.0844 32.6188 17.1048 32.5508 17.0982 32.4826L16.8363 30.2912C16.835 30.2797 16.8329 30.2683 16.83 30.2572C16.8263 30.2397 16.8216 30.2225 16.8161 30.2055C16.8075 30.179 16.7956 30.1536 16.7809 30.13C16.746 30.0726 16.6985 30.0239 16.642 29.9877C16.5854 29.9514 16.5214 29.9286 16.4547 29.9209H16.3728C16.3469 29.9222 16.3212 29.926 16.296 29.9322C16.2283 29.9466 16.1651 29.9769 16.1116 30.0207C16.0582 30.0646 16.016 30.1206 15.9887 30.1841L15.3098 31.7584L14.631 30.1841L14.6159 30.1552C14.6073 30.1379 14.5972 30.1215 14.5856 30.106C14.57 30.0838 14.5523 30.0632 14.5327 30.0443C14.4838 29.9995 14.4256 29.9659 14.3623 29.9459C14.299 29.9259 14.2321 29.9199 14.1662 29.9285C14.1402 29.9314 14.1144 29.9369 14.0894 29.9448H14.068L14.0176 29.9688C13.9556 29.9998 13.9022 30.0457 13.8622 30.1024C13.8222 30.1591 13.7969 30.2248 13.7884 30.2937L13.5277 32.4851C13.5202 32.5531 13.5396 32.6214 13.5817 32.6752C13.6238 32.7291 13.6854 32.7644 13.7532 32.7735Z" fill="#1A171B"/>
<path d="M22.3879 32.7756C22.4574 32.7756 22.524 32.748 22.5732 32.6989C22.6223 32.6497 22.6499 32.5831 22.6499 32.5136V30.4418H23.3955C23.4315 30.4443 23.4676 30.4394 23.5017 30.4273C23.5357 30.4153 23.5669 30.3963 23.5932 30.3717C23.6196 30.3471 23.6407 30.3173 23.6551 30.2842C23.6695 30.2511 23.6769 30.2153 23.6769 30.1792C23.6769 30.1431 23.6695 30.1074 23.6551 30.0743C23.6407 30.0412 23.6196 30.0114 23.5932 29.9868C23.5669 29.9622 23.5357 29.9432 23.5017 29.9312C23.4676 29.9191 23.4315 29.9141 23.3955 29.9166H21.3804C21.3443 29.9141 21.3082 29.9191 21.2742 29.9312C21.2402 29.9432 21.209 29.9622 21.1826 29.9868C21.1562 30.0114 21.1351 30.0412 21.1208 30.0743C21.1064 30.1074 21.0989 30.1431 21.0989 30.1792C21.0989 30.2153 21.1064 30.2511 21.1208 30.2842C21.1351 30.3173 21.1562 30.3471 21.1826 30.3717C21.209 30.3963 21.2402 30.4153 21.2742 30.4273C21.3082 30.4394 21.3443 30.4443 21.3804 30.4418H22.126V32.5136C22.126 32.548 22.1327 32.5821 22.1459 32.6139C22.1591 32.6457 22.1784 32.6745 22.2027 32.6989C22.227 32.7232 22.2559 32.7425 22.2877 32.7556C22.3194 32.7688 22.3535 32.7756 22.3879 32.7756Z" fill="#1A171B"/>
<path d="M23.7607 30.1803V32.5141C23.7653 32.5806 23.795 32.6429 23.8437 32.6884C23.8925 32.7338 23.9566 32.7591 24.0233 32.7591C24.09 32.7591 24.1541 32.7338 24.2029 32.6884C24.2516 32.6429 24.2813 32.5806 24.2859 32.5141V30.1803C24.2884 30.1443 24.2834 30.1082 24.2714 30.0742C24.2593 30.0401 24.2404 30.009 24.2157 29.9826C24.1911 29.9562 24.1613 29.9351 24.1282 29.9207C24.0951 29.9064 24.0594 29.8989 24.0233 29.8989C23.9872 29.8989 23.9515 29.9064 23.9184 29.9207C23.8853 29.9351 23.8555 29.9562 23.8308 29.9826C23.8062 30.009 23.7873 30.0401 23.7752 30.0742C23.7631 30.1082 23.7582 30.1443 23.7607 30.1803Z" fill="#1A171B"/>
<path d="M27.8804 31.5424C27.8804 31.6118 27.908 31.6785 27.9571 31.7276C28.0062 31.7767 28.0728 31.8043 28.1423 31.8043H29.0516L29.1436 32.5449C29.1478 32.579 29.1587 32.612 29.1757 32.642C29.1926 32.6719 29.2153 32.6982 29.2425 32.7194C29.2696 32.7406 29.3006 32.7562 29.3338 32.7653C29.367 32.7745 29.4016 32.7771 29.4358 32.7728C29.4699 32.7686 29.5029 32.7577 29.5328 32.7408C29.5628 32.7238 29.5891 32.7011 29.6103 32.674C29.6314 32.6468 29.647 32.6158 29.6562 32.5826C29.6654 32.5495 29.6679 32.5148 29.6637 32.4807L29.4824 31.0235V30.9995C29.472 30.9276 29.4564 30.8564 29.4358 30.7867C29.4124 30.71 29.3825 30.6354 29.3463 30.5638C29.2592 30.3724 29.1191 30.2099 28.9426 30.0956C28.766 29.9813 28.5604 29.92 28.3501 29.9189C28.2653 29.9192 28.1809 29.9289 28.0982 29.9479C28.0179 29.9673 27.9401 29.9961 27.8665 30.0336C27.6853 30.1333 27.5314 30.2761 27.4185 30.4494C27.3056 30.6228 27.2372 30.8212 27.2191 31.0273L27.0554 32.4844C27.0516 32.5515 27.0737 32.6174 27.1171 32.6686C27.1604 32.7199 27.2218 32.7525 27.2886 32.7597C27.3553 32.767 27.4223 32.7484 27.4757 32.7077C27.5291 32.667 27.5649 32.6074 27.5756 32.5411L27.7393 31.0839C27.7479 30.9641 27.7857 30.8483 27.8494 30.7464C27.913 30.6446 28.0006 30.5598 28.1045 30.4995C28.1418 30.4809 28.1811 30.4665 28.2217 30.4567C28.2649 30.4461 28.3093 30.4406 28.3539 30.4404C28.4666 30.443 28.5762 30.4775 28.6701 30.5399C28.7639 30.6023 28.8382 30.6901 28.8841 30.793C28.9053 30.8379 28.9234 30.8842 28.9383 30.9315C28.9506 30.9759 28.9607 31.0209 28.9685 31.0663V31.0865L28.9924 31.2791H28.1486C28.1136 31.2783 28.0787 31.2845 28.0461 31.2974C28.0135 31.3102 27.9839 31.3295 27.9588 31.3541C27.9338 31.3786 27.914 31.4079 27.9005 31.4403C27.887 31.4726 27.8802 31.5073 27.8804 31.5424Z" fill="#1A171B"/>
<path d="M32.2771 32.6872L32.2985 32.6784L32.3312 32.6621C32.3507 32.6521 32.3689 32.6398 32.3854 32.6255C32.4282 32.591 32.4627 32.5472 32.4863 32.4975C32.5098 32.4478 32.5218 32.3934 32.5214 32.3384V30.1797C32.5214 30.1102 32.4938 30.0436 32.4447 29.9945C32.3955 29.9453 32.3289 29.9177 32.2594 29.9177C32.19 29.9177 32.1233 29.9453 32.0742 29.9945C32.0251 30.0436 31.9975 30.1102 31.9975 30.1797V31.8963L30.6045 30.1167C30.5716 30.0742 30.5297 30.0394 30.4818 30.0148C30.4339 29.9902 30.3812 29.9764 30.3274 29.9744C30.3061 29.9729 30.2846 29.9729 30.2632 29.9744L30.2267 29.9845C30.2142 29.9865 30.2019 29.9899 30.1902 29.9946C30.1027 30.024 30.0295 30.0851 29.9849 30.1658C29.9773 30.1822 29.9698 30.1986 29.9647 30.2124C29.9544 30.2396 29.9472 30.268 29.9433 30.2968C29.9421 30.3119 29.9421 30.3271 29.9433 30.3422V32.5109C29.9433 32.5804 29.9709 32.647 30.02 32.6962C30.0692 32.7453 30.1358 32.7729 30.2053 32.7729C30.2748 32.7729 30.3414 32.7453 30.3905 32.6962C30.4396 32.647 30.4672 32.5804 30.4672 32.5109V30.7867L31.864 32.5651L31.8728 32.5752C31.8828 32.5881 31.8942 32.5999 31.9068 32.6104C31.9228 32.6249 31.9401 32.638 31.9584 32.6495C31.9694 32.6561 31.9807 32.662 31.9924 32.6671C32.0359 32.688 32.0832 32.7001 32.1314 32.7027C32.1796 32.7053 32.2278 32.6983 32.2733 32.6822L32.2771 32.6872Z" fill="#1A171B"/>
<path d="M33.7884 30.4417H34.5617C34.6282 30.4371 34.6904 30.4074 34.7359 30.3587C34.7814 30.3099 34.8067 30.2458 34.8067 30.1791C34.8067 30.1124 34.7814 30.0483 34.7359 29.9995C34.6904 29.9508 34.6282 29.9211 34.5617 29.9165H33.7884C33.5146 29.9168 33.2521 30.0258 33.0585 30.2194C32.8649 30.413 32.7559 30.6754 32.7556 30.9492V31.7377C32.7559 32.0115 32.8649 32.2739 33.0585 32.4676C33.2521 32.6612 33.5146 32.7701 33.7884 32.7704H34.5617C34.6311 32.7704 34.6978 32.7428 34.7469 32.6937C34.796 32.6446 34.8236 32.5779 34.8236 32.5084C34.8236 32.439 34.796 32.3723 34.7469 32.3232C34.6978 32.2741 34.6311 32.2465 34.5617 32.2465H33.7884C33.6545 32.2455 33.5262 32.1923 33.431 32.0982C33.3357 32.0041 33.2809 31.8766 33.2783 31.7427V30.9543C33.2781 30.8873 33.2912 30.8209 33.3169 30.7591C33.3427 30.6972 33.3805 30.6411 33.4282 30.5941C33.5235 30.498 33.653 30.4424 33.7884 30.4417Z" fill="#1A171B"/>
<path d="M36.0793 29.919C35.7595 29.918 35.4517 30.0408 35.2203 30.2615C35.1065 30.3699 35.0158 30.5002 34.9536 30.6446C34.8915 30.7889 34.8593 30.9444 34.8589 31.1016V31.5902C34.8594 31.7471 34.8915 31.9022 34.9534 32.0464C35.0153 32.1905 35.1057 32.3207 35.2191 32.429C35.451 32.65 35.759 32.7731 36.0793 32.7729C36.3992 32.7733 36.707 32.6501 36.9382 32.429C37.0522 32.3208 37.143 32.1905 37.2051 32.0461C37.2673 31.9017 37.2994 31.7462 37.2997 31.589V31.1041C37.2994 30.9469 37.2673 30.7914 37.2051 30.647C37.143 30.5026 37.0522 30.3723 36.9382 30.264C36.7072 30.0424 36.3994 29.9187 36.0793 29.919ZM36.7783 31.5902C36.7775 31.6772 36.7591 31.763 36.7242 31.8427C36.6894 31.9223 36.6388 31.9941 36.5755 32.0537C36.4418 32.1811 36.264 32.2519 36.0793 32.2514C35.8945 32.2522 35.7167 32.1813 35.5831 32.0537C35.5201 31.9941 35.4697 31.9225 35.4349 31.8431C35.4 31.7637 35.3815 31.6782 35.3803 31.5915V31.1041C35.3813 31.0172 35.3998 30.9314 35.4346 30.8518C35.4695 30.7722 35.5199 30.7003 35.5831 30.6406C35.7167 30.513 35.8945 30.4421 36.0793 30.4429C36.264 30.4424 36.4418 30.5132 36.5755 30.6406C36.6386 30.7003 36.6891 30.7722 36.7239 30.8518C36.7588 30.9314 36.7773 31.0172 36.7783 31.1041V31.5928V31.5902Z" fill="#1A171B"/>
<path d="M25.7896 29.9165H24.7632C24.6985 29.9191 24.637 29.9456 24.5907 29.9908C24.5639 30.0164 24.5429 30.0473 24.5289 30.0815C24.5149 30.1145 24.508 30.1501 24.5088 30.186V32.5084C24.5088 32.5777 24.5362 32.6441 24.5851 32.6932C24.6339 32.7423 24.7002 32.7701 24.7695 32.7704H26.0453C26.2713 32.7701 26.488 32.6801 26.6479 32.5203C26.8077 32.3605 26.8976 32.1438 26.898 31.9178C26.8971 31.7005 26.8138 31.4916 26.665 31.3334L26.6486 31.3158C26.6037 31.2708 26.5538 31.2311 26.5 31.1974C26.5828 31.0634 26.6264 30.909 26.6259 30.7515C26.6261 30.6417 26.6046 30.533 26.5626 30.4315C26.5206 30.33 26.459 30.2378 26.3813 30.1603C26.3036 30.0827 26.2113 30.0212 26.1098 29.9794C26.0082 29.9375 25.8995 29.9162 25.7896 29.9165ZM26.0101 30.5324C26.0395 30.5613 26.0628 30.5958 26.0788 30.6339C26.0948 30.6719 26.1031 30.7128 26.1032 30.754C26.1033 30.7952 26.0952 30.836 26.0794 30.8741C26.0636 30.9121 26.0405 30.9466 26.0113 30.9757C25.9587 31.0286 25.8891 31.0611 25.8148 31.0676H25.6927C25.6232 31.0676 25.5566 31.0952 25.5074 31.1444C25.4583 31.1935 25.4307 31.2601 25.4307 31.3296C25.4307 31.3991 25.4583 31.4657 25.5074 31.5148C25.5566 31.564 25.6232 31.5916 25.6927 31.5916H26.0415C26.129 31.5917 26.2128 31.6266 26.2745 31.6885L26.2846 31.6986C26.3398 31.7593 26.3708 31.8382 26.3715 31.9203C26.3712 32.0077 26.3363 32.0914 26.2745 32.1532C26.2127 32.2151 26.1289 32.2499 26.0415 32.2503H25.034V30.4417H25.7896C25.8305 30.4416 25.8711 30.4495 25.9089 30.4651C25.9467 30.4807 25.9811 30.5035 26.0101 30.5324Z" fill="#1A171B"/>
<path fill-rule="evenodd" clip-rule="evenodd" d="M18.4068 4.68994H33.4194C33.9422 4.70641 34.4373 4.92898 34.7966 5.30908C35.156 5.68919 35.3504 6.19599 35.3375 6.71891V7.68868C35.3508 7.81818 35.3369 7.94904 35.2967 8.07284C35.2564 8.19664 35.1907 8.31064 35.1037 8.40753C35.0168 8.50441 34.9105 8.58203 34.7918 8.6354C34.673 8.68877 34.5444 8.7167 34.4142 8.71741C34.2841 8.71812 34.1552 8.69158 34.0358 8.6395C33.9165 8.58742 33.8094 8.51096 33.7214 8.41502C33.6334 8.31909 33.5665 8.2058 33.5249 8.08244C33.4833 7.95909 33.4679 7.82839 33.4798 7.69876V7.17483C33.4795 7.01248 33.415 6.85685 33.3003 6.74193C33.1856 6.62702 33.0301 6.56214 32.8678 6.56148H17.8224C17.6602 6.56181 17.5047 6.6264 17.39 6.74112C17.2753 6.85584 17.2107 7.01133 17.2103 7.17357V7.69246C17.2288 7.81807 17.2203 7.94619 17.1854 8.06825C17.1504 8.19032 17.0898 8.30353 17.0077 8.40033C16.9255 8.49713 16.8237 8.57529 16.7089 8.62961C16.5941 8.68392 16.4691 8.71314 16.3421 8.71531C16.2152 8.71747 16.0892 8.69254 15.9727 8.64217C15.8561 8.59181 15.7517 8.51717 15.6662 8.42323C15.5808 8.32929 15.5164 8.21821 15.4773 8.09741C15.4382 7.97661 15.4254 7.84886 15.4396 7.72268V6.71891C15.427 6.19608 15.6215 5.68947 15.9808 5.30944C16.3401 4.9294 16.835 4.70674 17.3577 4.68994H18.4068ZM25.2909 27.3259H35.0264C37.2506 27.3259 37.2733 24.9632 37.0416 23.7995C36.9874 23.6294 36.8805 23.481 36.7364 23.3756C36.5923 23.2703 36.4184 23.2135 36.2399 23.2135C36.0614 23.2135 35.8875 23.2703 35.7434 23.3756C35.5993 23.481 35.4924 23.6294 35.4383 23.7995V24.7101C35.4383 24.9105 35.3587 25.1027 35.2169 25.2444C35.0752 25.3861 34.883 25.4657 34.6826 25.4657H16.0189C15.8185 25.4657 15.6263 25.3861 15.4846 25.2444C15.3428 25.1027 15.2632 24.9105 15.2632 24.7101V23.7995C15.2091 23.6294 15.1022 23.481 14.9581 23.3756C14.814 23.2703 14.6401 23.2135 14.4616 23.2135C14.2831 23.2135 14.1092 23.2703 13.9651 23.3756C13.821 23.481 13.7141 23.6294 13.66 23.7995C13.4333 24.967 13.4559 27.3259 15.6751 27.3259H25.2872H25.2909Z" fill="#246BB5"/>
</svg>
