<svg width="26" height="25" viewBox="0 0 26 25" fill="none" xmlns="http://www.w3.org/2000/svg">
<path fill-rule="evenodd" clip-rule="evenodd" d="M24.9807 5.11561C25.0289 5.22158 25.0482 5.32755 25.0482 5.44316V5.4817V11.3295H23.1214V6.44509H2.06166L1.93642 23.0732H23.1214V18.3911H25.0482V24.0366C25.0482 24.5665 24.6146 25 24.0848 25H0.963391C0.703276 25 0.462428 24.894 0.279383 24.711C0.0963391 24.5279 0 24.2871 0 24.027L0.144509 5.47206V5.44316C0.144509 5.32755 0.17341 5.22158 0.211946 5.11561L0.240848 5.0578C0.249221 5.04106 0.256786 5.02431 0.264244 5.0078C0.282531 4.96732 0.300182 4.92824 0.327553 4.89403L3.75723 0.385356C3.94027 0.144509 4.22929 0 4.52794 0H20.6358C20.9345 0 21.2139 0.134875 21.3969 0.375723L24.8555 4.89403C24.894 4.95182 24.9229 5.00961 24.9518 5.06739L24.9518 5.06744C24.9556 5.07504 24.9609 5.08114 24.966 5.08693C24.9737 5.09581 24.9807 5.10394 24.9807 5.11561ZM5 1.92678L3.03468 4.5183H22.1387L20.1541 1.92678H5ZM14.1514 8.91174L15.5098 10.2701V10.2798L11.9934 13.7961H25.0474V15.7229H11.9742L15.5098 19.2586L14.1514 20.6169L9.14181 15.6073C8.9684 15.4243 8.86242 15.1834 8.86242 14.9233V14.6054C8.86242 14.3453 8.95876 14.1044 9.14181 13.9214L14.1514 8.91174Z" fill="white"/>
</svg>
