<svg width="20" height="25" viewBox="0 0 20 25" fill="none" xmlns="http://www.w3.org/2000/svg">
<path fill-rule="evenodd" clip-rule="evenodd" d="M15.5237 8.87942H18.2654C18.7963 8.87942 19.2308 9.31564 19.2308 9.84878V21.1225C19.2308 23.2648 17.5027 25 15.3692 25H3.8616C1.72808 25 0 23.2648 0 21.1225V9.85846C0 9.32532 0.434429 8.8891 0.965384 8.8891H3.70712V5.94224C3.70712 2.66576 6.35231 0 9.61538 0C12.8785 0 15.5237 2.66576 15.5237 5.93256V8.87942ZM9.61538 1.94843C7.42391 1.94843 5.63795 3.74173 5.63795 5.94224V8.8891H13.5928V5.94224C13.5928 3.74173 11.8069 1.94843 9.61538 1.94843ZM15.3692 23.0515C16.4311 23.0515 17.3 22.1792 17.3 21.1128V10.8181H1.93077V21.1128C1.93077 22.1792 2.79968 23.0515 3.8616 23.0515H15.3692ZM7.69231 15.4186C7.69231 14.3421 8.54808 13.4613 9.61539 13.4613C10.6731 13.4613 11.5385 14.3323 11.5385 15.4186C11.5385 16.1428 11.1538 16.7692 10.5769 17.1118V20.175C10.5769 20.7132 10.1442 21.1536 9.61539 21.1536C9.08654 21.1536 8.65385 20.7132 8.65385 20.175V17.1118C8.08654 16.7692 7.69231 16.1428 7.69231 15.4186Z" fill="white"/>
</svg>
