<svg width="50" height="36" viewBox="0 0 50 36" fill="none" xmlns="http://www.w3.org/2000/svg">
<path d="M44.1923 0.0732422H5.80769C2.60019 0.0732422 0 2.69076 0 5.91965V29.6538C0 32.8826 2.60019 35.5001 5.80769 35.5001H44.1923C47.3998 35.5001 50 32.8826 50 29.6538V5.91965C50 2.69076 47.3998 0.0732422 44.1923 0.0732422Z" fill="white"/>
<path fill-rule="evenodd" clip-rule="evenodd" d="M22.3868 17.2235L22.6368 15.6554H19.5214L21.2906 4.17556C21.2906 4.17556 21.2906 4.09812 21.3483 4.07876C21.3675 4.0594 21.406 4.04004 21.4444 4.04004H25.7906C27.2329 4.04004 28.2137 4.33042 28.7522 4.93056C29.0022 5.20158 29.1176 5.51132 29.2137 5.82107C29.2906 6.16953 29.2906 6.57607 29.2137 7.0794V7.42786L29.4636 7.56337C29.6753 7.67953 29.8291 7.81504 29.9637 7.9312C30.156 8.18286 30.2906 8.49261 30.3482 8.86042C30.4445 9.82837 30.233 10.8157 29.7522 11.6481C29.3291 12.3838 28.5983 12.9065 27.7714 13.0807C27.3675 13.1969 26.8868 13.2743 26.3483 13.2743H26.0213C25.5214 13.2743 25.0984 13.6421 25.0213 14.126V14.2616L24.5598 17.0105V17.1267L24.5214 17.1848H22.3868V17.2235Z" fill="#28356A"/>
<path fill-rule="evenodd" clip-rule="evenodd" d="M29.6919 7.16095L29.6534 7.41262C29.0957 10.3939 27.1149 11.4199 24.6149 11.4199H23.3457C23.0572 11.4199 22.788 11.6522 22.7303 11.9426L21.9033 17.305C21.8649 17.4987 22.0379 17.6729 22.2111 17.6729H24.4611C24.7303 17.6729 24.9803 17.4793 25.0187 17.2083V17.0921L25.4611 14.3624V14.2077C25.5187 13.9366 25.7688 13.743 26.0379 13.743H26.3457C28.5572 13.743 30.2496 12.8524 30.7495 10.239C30.9803 9.15493 30.8649 8.26443 30.3072 7.62557C30.1149 7.43199 29.9418 7.25776 29.6726 7.1416L29.6919 7.16095Z" fill="#298FC2"/>
<path fill-rule="evenodd" clip-rule="evenodd" d="M29.0965 6.92681C28.9235 6.86874 28.7312 6.83002 28.5388 6.79131C28.1735 6.73323 27.8081 6.71387 27.4234 6.71387H24.0196C23.7503 6.71387 23.5195 6.90746 23.4812 7.17848L22.7312 11.8053V11.9408C22.7696 11.6504 23.0196 11.4181 23.3273 11.4181H24.6158C27.0965 11.4181 29.0581 10.3921 29.635 7.4108L29.6734 7.15913C29.4812 7.06234 29.2889 6.9849 29.0774 6.90746L29.0965 6.92681Z" fill="#22284F"/>
<path fill-rule="evenodd" clip-rule="evenodd" d="M23.4806 7.17883C23.5382 6.92716 23.7498 6.75292 23.9998 6.73357H27.4037C27.9614 6.73357 28.5382 6.79164 29.0959 6.92715L29.2306 6.98524L29.6921 7.17883C29.8844 6.09473 29.6921 5.35908 29.1152 4.66215C28.4613 3.90715 27.3075 3.59741 25.7883 3.59741H21.4614C21.173 3.59741 20.9037 3.82973 20.846 4.13946L19.0383 15.6968C18.9998 15.8903 19.1345 16.1033 19.3267 16.142C19.346 16.142 19.3845 16.142 19.4036 16.142H22.0959L23.4999 7.19818L23.4806 7.17883ZM9.59598 20.3816H6.4229C6.21136 20.3816 6.01906 20.5365 5.9806 20.7495L4.71136 28.9576C4.71136 29.1125 4.80751 29.2481 4.96137 29.2481H6.48059C6.69213 29.2481 6.86522 29.0932 6.90367 28.8802L7.24983 26.654C7.28829 26.441 7.48059 26.2862 7.6729 26.2862H8.6729C10.7691 26.2862 11.9614 25.2601 12.2883 23.2468C12.4421 22.3757 12.2883 21.6593 11.8844 21.1947C11.4421 20.6333 10.6344 20.3816 9.59598 20.3816ZM9.96137 23.363C9.76906 24.5245 8.90368 24.5245 8.07675 24.5245H7.59598L7.92291 22.3757C7.92291 22.2401 8.05752 22.1433 8.1729 22.1433H8.40367C8.96136 22.1433 9.51905 22.1433 9.78829 22.4531C9.96137 22.666 10.0191 22.9564 9.94213 23.3436L9.96137 23.363ZM19.1345 23.2662H17.6153C17.4806 23.2662 17.3652 23.363 17.3652 23.4985L17.3075 23.9243L17.1921 23.7695C16.8652 23.2854 16.1345 23.1113 15.4036 23.1113C13.7305 23.1113 12.2883 24.389 12.0191 26.1893C11.8844 27.0798 12.096 27.951 12.5768 28.5512C13.0575 29.0932 13.7305 29.3062 14.4999 29.3062C15.8459 29.3062 16.596 28.4349 16.596 28.4349L16.5383 28.8609C16.4999 29.0351 16.6344 29.1707 16.7883 29.1707H18.1345C18.3652 29.1707 18.5383 28.9964 18.5768 28.8029L19.3845 23.5371C19.4036 23.4016 19.3075 23.2662 19.173 23.2468C19.173 23.2468 19.1537 23.2468 19.1345 23.2468V23.2662ZM17.0191 26.2474C16.9037 27.0992 16.1728 27.7187 15.3075 27.6993C14.8652 27.6993 14.519 27.5638 14.2882 27.2929C14.0575 26.9831 13.9613 26.5959 14.0383 26.2087C14.1728 25.3569 14.8652 24.7374 15.7498 24.7374C16.1728 24.7374 16.519 24.8923 16.7498 25.1633C16.9998 25.4149 17.0767 25.8215 16.9998 26.2474H17.0191ZM27.0959 23.4016H25.5767C25.4228 23.4016 25.2883 23.4597 25.2113 23.5952L23.1152 26.7314L22.2306 23.7308C22.173 23.5371 21.9998 23.421 21.8075 23.421H20.3075C20.1152 23.421 19.9998 23.6146 20.0576 23.7695L21.7306 28.7447L20.173 30.9903C20.0383 31.184 20.173 31.4163 20.3845 31.4163H21.9037C22.0576 31.4163 22.1921 31.3388 22.2691 31.2226L27.346 23.8275C27.4613 23.6533 27.346 23.421 27.1152 23.421L27.0959 23.4016Z" fill="#28356A"/>
<path fill-rule="evenodd" clip-rule="evenodd" d="M32.1914 20.3807H28.9992C28.7877 20.3807 28.6146 20.5356 28.5761 20.7485L27.2876 28.9568C27.2876 29.1117 27.403 29.2472 27.5569 29.2472H29.1915C29.3454 29.2472 29.4607 29.131 29.48 28.9955L29.8454 26.6724C29.8454 26.4595 30.0569 26.3046 30.2685 26.3046H31.2685C33.3646 26.3046 34.5569 25.2785 34.8838 23.2652C35.0377 22.394 34.8838 21.6778 34.48 21.2132C34.0377 20.6518 33.23 20.4001 32.1723 20.4001L32.1914 20.3807ZM32.5569 23.3621C32.3646 24.5235 31.4992 24.5235 30.6723 24.5235H30.1915L30.5184 22.3747C30.5184 22.2393 30.653 22.1424 30.7684 22.1424H30.9992C31.5569 22.1424 32.1146 22.1424 32.3838 22.4522C32.5569 22.6651 32.6146 22.9555 32.5376 23.3427L32.5569 23.3621ZM41.73 23.2652H40.2107C40.0762 23.2652 39.9608 23.3621 39.9608 23.4976L39.8838 23.9234L39.7876 23.7685C39.4607 23.2846 38.7107 23.1104 37.9992 23.1104C36.3261 23.1104 34.8838 24.388 34.6146 26.1884C34.4607 27.0789 34.6723 27.9501 35.1723 28.5502C35.653 29.0923 36.3068 29.3052 37.0953 29.3052C38.4415 29.3052 39.1916 28.434 39.1916 28.434L39.1338 28.86C39.0953 29.0343 39.2299 29.1697 39.3838 29.1697H40.73C40.9608 29.1697 41.1338 28.9955 41.1723 28.8019L41.98 23.5362C41.9991 23.4007 41.903 23.2652 41.7684 23.2459C41.7684 23.2459 41.7492 23.2459 41.73 23.2459V23.2652ZM39.6146 26.2466C39.4992 27.0983 38.7493 27.7372 37.8838 27.6984C37.4607 27.6984 37.1146 27.5629 36.8645 27.2919C36.6339 26.9822 36.5569 26.595 36.6339 26.2078C36.7684 25.356 37.4607 24.7366 38.3261 24.7366C38.7684 24.7366 39.1145 24.8913 39.3453 25.1624C39.5954 25.4722 39.6915 25.8594 39.5954 26.2466H39.6146ZM43.3838 20.5937L42.0953 28.9374C42.0569 29.0923 42.1916 29.2278 42.3453 29.2278H43.6339C43.8646 29.2278 44.0377 29.0729 44.0762 28.86L45.3453 20.6518C45.3646 20.5162 45.2684 20.3807 45.1338 20.3613C45.1338 20.3613 45.1145 20.3613 45.0954 20.3613H43.6146C43.4992 20.3613 43.3838 20.4582 43.3646 20.5937H43.3838Z" fill="#298FC2"/>
</svg>
