<svg width="26" height="27" viewBox="0 0 26 27" fill="none" xmlns="http://www.w3.org/2000/svg">
<path fill-rule="evenodd" clip-rule="evenodd" d="M2.5 13.6985C2.5 7.77315 7.30342 2.96973 13.2287 2.96973C19.1541 2.96973 23.9575 7.77315 23.9575 13.6985C23.9575 19.6238 19.1541 24.4272 13.2287 24.4272C7.30342 24.4272 2.5 19.6238 2.5 13.6985ZM13.2287 0.969727C6.19885 0.969727 0.5 6.66858 0.5 13.6985C0.5 20.7283 6.19885 26.4272 13.2287 26.4272C20.2586 26.4272 25.9575 20.7283 25.9575 13.6985C25.9575 6.66858 20.2586 0.969727 13.2287 0.969727ZM10.1987 14.1068C10.1728 14.2116 10.1476 14.3133 10.1324 14.3727C10.0861 14.5537 9.94118 14.618 9.78089 14.551C8.79959 14.1431 8.34177 13.0477 8.34177 11.8166C8.34177 9.78323 10.0256 7.34521 13.3641 7.34521C16.0472 7.34521 17.8127 9.32213 17.8127 11.446C17.8127 14.2539 16.2803 16.3516 14.0209 16.3516C13.2624 16.3516 12.5483 15.9337 12.3049 15.4595C12.3049 15.4595 11.8967 17.1084 11.8097 17.4266C11.5211 18.4952 10.6989 19.5644 10.5578 19.748C10.5503 19.7576 10.5448 19.7648 10.5413 19.7695C10.493 19.8331 10.3861 19.8134 10.3745 19.7282C10.3735 19.7208 10.372 19.7099 10.3699 19.6958C10.3328 19.4385 10.1406 18.1056 10.3958 17.0081C10.5304 16.427 11.2998 13.1074 11.2998 13.1074C11.2998 13.1074 11.0751 12.6502 11.0751 11.9746C11.0751 10.914 11.6791 10.1217 12.4305 10.1217C13.0692 10.1217 13.3783 10.611 13.3783 11.1967C13.3783 11.6151 13.2112 12.1659 13.0354 12.7458C12.9361 13.0731 12.834 13.4097 12.7576 13.7371C12.5818 14.4966 13.1316 15.1158 13.8669 15.1158C15.1979 15.1158 16.0949 13.3737 16.0949 11.3102C16.0949 9.74061 15.0582 8.56652 13.171 8.56652C11.0397 8.56652 9.7113 10.186 9.7113 11.9943C9.7113 12.6181 9.89224 13.0588 10.1749 13.3987C10.305 13.5554 10.3237 13.6177 10.276 13.7974C10.258 13.8675 10.2279 13.9891 10.1987 14.1068Z" fill="white"/>
</svg>
