<svg width="89" height="27" viewBox="0 0 89 27" fill="none" xmlns="http://www.w3.org/2000/svg">
<path d="M85.7037 26.7976H3.2963C1.45037 26.7976 0 25.3472 0 23.5013V3.72354C0 1.87762 1.45037 0.427246 3.2963 0.427246H85.7037C87.5496 0.427246 89 1.87762 89 3.72354V23.5013C89 25.3472 87.5496 26.7976 85.7037 26.7976Z" fill="black"/>
<path d="M85.7037 0.954654C87.22 0.954654 88.4726 2.20725 88.4726 3.72354V23.5013C88.4726 25.0176 87.22 26.2702 85.7037 26.2702H3.2963C1.78 26.2702 0.527407 25.0176 0.527407 23.5013V3.72354C0.527407 2.20725 1.78 0.954654 3.2963 0.954654H85.7037ZM85.7037 0.427246H3.2963C1.45037 0.427246 0 1.94354 0 3.72354V23.5013C0 25.3472 1.45037 26.7976 3.2963 26.7976H85.7037C87.5496 26.7976 89 25.3472 89 23.5013V3.72354C89 1.94354 87.5496 0.427246 85.7037 0.427246Z" fill="#A6A6A6"/>
<path d="M44.8955 14.7992C43.3133 14.7992 42.0607 15.9859 42.0607 17.634C42.0607 19.2162 43.3133 20.4688 44.8955 20.4688C46.4777 20.4688 47.7303 19.2822 47.7303 17.634C47.7303 15.9199 46.4777 14.7992 44.8955 14.7992ZM44.8955 19.2822C44.0385 19.2822 43.3133 18.557 43.3133 17.5681C43.3133 16.5792 44.0385 15.854 44.8955 15.854C45.7526 15.854 46.4777 16.5133 46.4777 17.5681C46.4777 18.557 45.7526 19.2822 44.8955 19.2822ZM38.7644 14.7992C37.1822 14.7992 35.9296 15.9859 35.9296 17.634C35.9296 19.2162 37.1822 20.4688 38.7644 20.4688C40.3466 20.4688 41.5992 19.2822 41.5992 17.634C41.5992 15.9199 40.3466 14.7992 38.7644 14.7992ZM38.7644 19.2822C37.9074 19.2822 37.1822 18.557 37.1822 17.5681C37.1822 16.5792 37.9074 15.854 38.7644 15.854C39.6214 15.854 40.3466 16.5133 40.3466 17.5681C40.3466 18.557 39.6214 19.2822 38.7644 19.2822ZM31.4466 15.6562V16.8429H34.2814C34.2155 17.5022 33.9518 18.0296 33.6222 18.3592C33.2266 18.7548 32.5674 19.2162 31.4466 19.2162C29.6666 19.2162 28.3481 17.8318 28.3481 16.0518C28.3481 14.2718 29.7326 12.8873 31.4466 12.8873C32.3696 12.8873 33.0948 13.2829 33.6222 13.7444L34.4792 12.8873C33.754 12.2281 32.8311 11.7007 31.5126 11.7007C29.1392 11.7007 27.0955 13.6785 27.0955 16.0518C27.0955 18.4251 29.1392 20.4029 31.5126 20.4029C32.8311 20.4029 33.754 20.0073 34.5452 19.1503C35.3363 18.3592 35.6 17.2385 35.6 16.3814C35.6 16.1177 35.6 15.854 35.534 15.6562H31.4466ZM61.377 16.5792C61.1133 15.9199 60.454 14.7992 59.0037 14.7992C57.5533 14.7992 56.3666 15.9199 56.3666 17.634C56.3666 19.2162 57.5533 20.4688 59.1355 20.4688C60.3881 20.4688 61.1792 19.6777 61.4429 19.2162L60.52 18.557C60.1903 19.0185 59.7948 19.3481 59.1355 19.3481C58.4763 19.3481 58.0807 19.0844 57.7511 18.4911L61.5089 16.9088L61.377 16.5792ZM57.5533 17.5022C57.5533 16.4473 58.4103 15.854 59.0037 15.854C59.4651 15.854 59.9266 16.1177 60.0585 16.4473L57.5533 17.5022ZM54.4548 20.2051H55.7074V11.9644H54.4548V20.2051ZM52.477 15.3925C52.1474 15.0629 51.62 14.7333 50.9607 14.7333C49.5763 14.7333 48.2577 15.9859 48.2577 17.5681C48.2577 19.1503 49.5103 20.337 50.9607 20.337C51.62 20.337 52.1474 20.0073 52.4111 19.6777H52.477V20.0733C52.477 21.1281 51.8837 21.7214 50.9607 21.7214C50.2355 21.7214 49.7081 21.194 49.5763 20.7325L48.5214 21.194C48.8511 21.9192 49.6422 22.8422 51.0266 22.8422C52.477 22.8422 53.6637 21.9851 53.6637 19.9414V14.9311H52.477V15.3925ZM51.0266 19.2822C50.1696 19.2822 49.4444 18.557 49.4444 17.5681C49.4444 16.5792 50.1696 15.854 51.0266 15.854C51.8837 15.854 52.5429 16.5792 52.5429 17.5681C52.5429 18.557 51.8837 19.2822 51.0266 19.2822ZM67.1126 11.9644H64.1459V20.2051H65.3985V17.1066H67.1126C68.497 17.1066 69.8155 16.1177 69.8155 14.5355C69.8155 12.9533 68.497 11.9644 67.1126 11.9644ZM67.1785 15.9199H65.3985V13.0851H67.1785C68.1014 13.0851 68.6288 13.8762 68.6288 14.4696C68.5629 15.1948 68.0355 15.9199 67.1785 15.9199ZM74.76 14.7333C73.837 14.7333 72.914 15.1288 72.5844 15.9859L73.7051 16.4473C73.9689 15.9859 74.3644 15.854 74.8259 15.854C75.4851 15.854 76.0785 16.2496 76.1444 16.9088V16.9748C75.9466 16.8429 75.4192 16.6451 74.8918 16.6451C73.7051 16.6451 72.5185 17.3044 72.5185 18.4911C72.5185 19.6118 73.5074 20.337 74.5622 20.337C75.4192 20.337 75.8148 19.9414 76.1444 19.5459H76.2103V20.2051H77.397V17.0407C77.2651 15.5903 76.1444 14.7333 74.76 14.7333ZM74.6281 19.2822C74.2326 19.2822 73.6392 19.0844 73.6392 18.557C73.6392 17.8977 74.3644 17.6999 74.9577 17.6999C75.4851 17.6999 75.7489 17.8318 76.0785 17.9636C75.9466 18.7548 75.2874 19.2822 74.6281 19.2822ZM81.5503 14.9311L80.1659 18.4911H80.1L78.6496 14.9311H77.3311L79.5066 19.9414L78.254 22.7103H79.5066L82.8688 14.9311H81.5503ZM70.4748 20.2051H71.7274V11.9644H70.4748V20.2051Z" fill="white"/>
<path d="M28.8605 9.99977H27.4714V5.70886H28.9045C29.325 5.70886 29.686 5.79476 29.9877 5.96657C30.2894 6.13697 30.5206 6.38211 30.6812 6.70197C30.8433 7.02044 30.9243 7.40246 30.9243 7.84803C30.9243 8.295 30.8426 8.67911 30.6791 9.00037C30.5171 9.32163 30.2825 9.56886 29.9752 9.74206C29.6679 9.91387 29.2963 9.99977 28.8605 9.99977ZM28.1188 9.43407H28.8249C29.1518 9.43407 29.4234 9.37261 29.6399 9.2497C29.8564 9.12538 30.0185 8.9459 30.126 8.71124C30.2336 8.47518 30.2873 8.18745 30.2873 7.84803C30.2873 7.51141 30.2336 7.22576 30.126 6.9911C30.0199 6.75645 29.8613 6.57836 29.6504 6.45684C29.4395 6.33532 29.1776 6.27456 28.8647 6.27456H28.1188V9.43407Z" fill="white"/>
<path d="M32.3768 5.70886V9.99977H31.7293V5.70886H32.3768Z" fill="white"/>
<path d="M35.6599 6.83606C35.6375 6.63772 35.5453 6.48407 35.3833 6.37512C35.2213 6.26478 35.0174 6.20961 34.7715 6.20961C34.5955 6.20961 34.4433 6.23754 34.3148 6.29341C34.1863 6.34789 34.0864 6.42331 34.0152 6.51969C33.9453 6.61467 33.9104 6.72292 33.9104 6.84444C33.9104 6.94641 33.9342 7.0344 33.9817 7.10843C34.0305 7.18246 34.0941 7.24462 34.1723 7.2949C34.2519 7.34379 34.3371 7.385 34.4279 7.41852C34.5187 7.45065 34.606 7.47718 34.6898 7.49814L35.1089 7.60708C35.2457 7.64061 35.3861 7.686 35.53 7.74327C35.6739 7.80054 35.8072 7.87596 35.9302 7.96955C36.0531 8.06313 36.1523 8.17907 36.2277 8.31735C36.3045 8.45563 36.3429 8.62115 36.3429 8.8139C36.3429 9.05694 36.2801 9.27275 36.1543 9.46131C36.03 9.64988 35.8491 9.79863 35.6117 9.90758C35.3756 10.0165 35.09 10.071 34.7548 10.071C34.4335 10.071 34.1556 10.02 33.9209 9.91806C33.6862 9.81609 33.5026 9.67153 33.3699 9.48436C33.2372 9.29579 33.1638 9.07231 33.1499 8.8139H33.7994C33.8119 8.96895 33.8622 9.09815 33.9502 9.20151C34.0396 9.30347 34.1535 9.3796 34.2917 9.42988C34.4314 9.47877 34.5844 9.50321 34.7506 9.50321C34.9336 9.50321 35.0963 9.47458 35.2388 9.41731C35.3826 9.35865 35.4958 9.27763 35.5782 9.17427C35.6606 9.06951 35.7018 8.9473 35.7018 8.80762C35.7018 8.68051 35.6655 8.57645 35.5928 8.49544C35.5216 8.41442 35.4245 8.34738 35.3016 8.2943C35.1801 8.24122 35.0425 8.19443 34.8889 8.15392L34.3818 8.01564C34.0382 7.92206 33.7659 7.78448 33.5647 7.60289C33.365 7.42131 33.2651 7.18107 33.2651 6.88216C33.2651 6.63493 33.3322 6.41912 33.4662 6.23475C33.6003 6.05037 33.7819 5.9072 34.011 5.80524C34.2401 5.70188 34.4985 5.6502 34.7862 5.6502C35.0767 5.6502 35.333 5.70118 35.5551 5.80314C35.7786 5.90511 35.9546 6.04548 36.0831 6.22427C36.2116 6.40166 36.2787 6.60559 36.2842 6.83606H35.6599Z" fill="white"/>
<path d="M37.1166 9.99977V5.70886H38.646C38.9799 5.70886 39.2564 5.76962 39.4757 5.89114C39.695 6.01266 39.8591 6.17888 39.9681 6.38979C40.077 6.59931 40.1315 6.83536 40.1315 7.09796C40.1315 7.36195 40.0763 7.5994 39.966 7.81032C39.857 8.01983 39.6922 8.18605 39.4715 8.30897C39.2522 8.43049 38.9764 8.49125 38.6439 8.49125H37.5922V7.94231H38.5853C38.7962 7.94231 38.9673 7.906 39.0986 7.83336C39.2299 7.75933 39.3263 7.65877 39.3877 7.53166C39.4492 7.40455 39.4799 7.25998 39.4799 7.09796C39.4799 6.93593 39.4492 6.79206 39.3877 6.66635C39.3263 6.54064 39.2292 6.44217 39.0965 6.37093C38.9652 6.2997 38.792 6.26408 38.5769 6.26408H37.764V9.99977H37.1166Z" fill="white"/>
<path d="M44.6178 7.85431C44.6178 8.31246 44.534 8.70635 44.3664 9.03599C44.1988 9.36423 43.969 9.61705 43.6771 9.79444C43.3865 9.97044 43.0562 10.0584 42.686 10.0584C42.3145 10.0584 41.9828 9.97044 41.6908 9.79444C41.4003 9.61705 41.1712 9.36354 41.0036 9.0339C40.836 8.70426 40.7522 8.31106 40.7522 7.85431C40.7522 7.39617 40.836 7.00298 41.0036 6.67473C41.1712 6.34509 41.4003 6.09228 41.6908 5.91628C41.9828 5.73889 42.3145 5.6502 42.686 5.6502C43.0562 5.6502 43.3865 5.73889 43.6771 5.91628C43.969 6.09228 44.1988 6.34509 44.3664 6.67473C44.534 7.00298 44.6178 7.39617 44.6178 7.85431ZM43.9767 7.85431C43.9767 7.50512 43.9201 7.2111 43.807 6.97225C43.6952 6.732 43.5416 6.55042 43.346 6.4275C43.1519 6.30319 42.9319 6.24103 42.686 6.24103C42.4388 6.24103 42.2181 6.30319 42.024 6.4275C41.8298 6.55042 41.6762 6.732 41.563 6.97225C41.4513 7.2111 41.3954 7.50512 41.3954 7.85431C41.3954 8.20351 41.4513 8.49823 41.563 8.73848C41.6762 8.97733 41.8298 9.15891 42.024 9.28322C42.2181 9.40614 42.4388 9.4676 42.686 9.4676C42.9319 9.4676 43.1519 9.40614 43.346 9.28322C43.5416 9.15891 43.6952 8.97733 43.807 8.73848C43.9201 8.49823 43.9767 8.20351 43.9767 7.85431Z" fill="white"/>
<path d="M48.8883 5.70886V9.99977H48.2932L46.1122 6.85282H46.0724V9.99977H45.425V5.70886H46.0242L48.2073 8.86H48.2471V5.70886H48.8883Z" fill="white"/>
<path d="M50.4801 5.70886V9.99977H49.8327V5.70886H50.4801ZM49.8997 5.27935L50.39 4.31348H51.05L50.4005 5.27935H49.8997Z" fill="white"/>
<path d="M51.7979 5.70886L52.9922 9.2036H53.0404L54.2346 5.70886H54.9344L53.3903 9.99977H52.6423L51.0982 5.70886H51.7979Z" fill="white"/>
<path d="M55.5541 9.99977V5.70886H58.2443V6.26618H56.2015V7.57356H58.1039V8.12878H56.2015V9.44245H58.2694V9.99977H55.5541Z" fill="white"/>
<path d="M59.109 9.99977V5.70886H59.7564V9.44245H61.7008V9.99977H59.109Z" fill="white"/>
<path d="M67.4641 5.70886V9.99977H66.869L64.688 6.85282H64.6481V9.99977H64.0007V5.70886H64.6L66.7831 8.86H66.8229V5.70886H67.4641Z" fill="white"/>
<path d="M72.1358 7.85431C72.1358 8.31246 72.0519 8.70635 71.8843 9.03599C71.7167 9.36423 71.4869 9.61705 71.195 9.79444C70.9045 9.97044 70.5742 10.0584 70.204 10.0584C69.8325 10.0584 69.5007 9.97044 69.2088 9.79444C68.9183 9.61705 68.6892 9.36354 68.5216 9.0339C68.354 8.70426 68.2702 8.31106 68.2702 7.85431C68.2702 7.39617 68.354 7.00298 68.5216 6.67473C68.6892 6.34509 68.9183 6.09228 69.2088 5.91628C69.5007 5.73889 69.8325 5.6502 70.204 5.6502C70.5742 5.6502 70.9045 5.73889 71.195 5.91628C71.4869 6.09228 71.7167 6.34509 71.8843 6.67473C72.0519 7.00298 72.1358 7.39617 72.1358 7.85431ZM71.4946 7.85431C71.4946 7.50512 71.4381 7.2111 71.3249 6.97225C71.2132 6.732 71.0595 6.55042 70.864 6.4275C70.6698 6.30319 70.4498 6.24103 70.204 6.24103C69.9568 6.24103 69.7361 6.30319 69.5419 6.4275C69.3478 6.55042 69.1941 6.732 69.081 6.97225C68.9693 7.2111 68.9134 7.50512 68.9134 7.85431C68.9134 8.20351 68.9693 8.49823 69.081 8.73848C69.1941 8.97733 69.3478 9.15891 69.5419 9.28322C69.7361 9.40614 69.9568 9.4676 70.204 9.4676C70.4498 9.4676 70.6698 9.40614 70.864 9.28322C71.0595 9.15891 71.2132 8.97733 71.3249 8.73848C71.4381 8.49823 71.4946 8.20351 71.4946 7.85431Z" fill="white"/>
<path d="M6.85629 5.37158C6.65852 5.56936 6.59259 5.89899 6.59259 6.29454V20.8642C6.59259 21.2597 6.72444 21.5894 6.92222 21.7871L6.98815 21.8531L15.163 13.6782V13.5464L6.85629 5.37158Z" fill="url(#paint0_linear_264_1291)"/>
<path d="M17.7999 16.447L15.097 13.744V13.5462L17.7999 10.8433L17.8659 10.9092L21.0962 12.7551C22.0192 13.2825 22.0192 14.1396 21.0962 14.667L17.7999 16.447Z" fill="url(#paint1_linear_264_1291)"/>
<path d="M17.8659 16.3812L15.097 13.6123L6.85626 21.853C7.18589 22.1827 7.64737 22.1827 8.24071 21.919L17.8659 16.3812Z" fill="url(#paint2_linear_264_1291)"/>
<path d="M17.8659 10.8434L8.24071 5.3715C7.64737 5.04187 7.18589 5.1078 6.85626 5.43743L15.097 13.6122L17.8659 10.8434Z" fill="url(#paint3_linear_264_1291)"/>
<path opacity="0.2" d="M17.8 16.3154L8.24071 21.7214C7.7133 22.051 7.25182 21.9851 6.92219 21.7214L6.85626 21.7873L6.92219 21.8532C7.25182 22.1169 7.7133 22.1828 8.24071 21.8532L17.8 16.3154Z" fill="black"/>
<path opacity="0.12" d="M6.85629 21.7212C6.65852 21.5234 6.59259 21.1938 6.59259 20.7982V20.8642C6.59259 21.2597 6.72444 21.5893 6.92222 21.7871V21.7212H6.85629ZM21.0963 14.4693L17.8 16.3153L17.8659 16.3812L21.0963 14.5353C21.5578 14.2716 21.7556 13.9419 21.7556 13.6123C21.7556 13.9419 21.4918 14.2056 21.0963 14.4693Z" fill="black"/>
<path opacity="0.25" d="M8.24074 5.43768L21.0963 12.7555C21.4918 13.0192 21.7556 13.2829 21.7556 13.6125C21.7556 13.2829 21.5578 12.9532 21.0963 12.6895L8.24074 5.37175C7.31778 4.84435 6.59259 5.2399 6.59259 6.29472V6.36064C6.59259 5.37175 7.31778 4.91027 8.24074 5.43768Z" fill="white"/>
<defs>
<linearGradient id="paint0_linear_264_1291" x1="14.3718" y1="6.16929" x2="3.3075" y2="17.233" gradientUnits="userSpaceOnUse">
<stop stop-color="#00A0FF"/>
<stop offset="0.007" stop-color="#00A1FF"/>
<stop offset="0.26" stop-color="#00BEFF"/>
<stop offset="0.512" stop-color="#00D2FF"/>
<stop offset="0.76" stop-color="#00DFFF"/>
<stop offset="1" stop-color="#00E3FF"/>
</linearGradient>
<linearGradient id="paint1_linear_264_1291" x1="22.3053" y1="13.6128" x2="6.35323" y2="13.6128" gradientUnits="userSpaceOnUse">
<stop stop-color="#FFE000"/>
<stop offset="0.409" stop-color="#FFBD00"/>
<stop offset="0.775" stop-color="#FFA500"/>
<stop offset="1" stop-color="#FF9C00"/>
</linearGradient>
<linearGradient id="paint2_linear_264_1291" x1="16.3674" y1="15.126" x2="1.36397" y2="30.1294" gradientUnits="userSpaceOnUse">
<stop stop-color="#FF3A44"/>
<stop offset="1" stop-color="#C31162"/>
</linearGradient>
<linearGradient id="paint3_linear_264_1291" x1="4.81058" y1="0.543086" x2="11.5106" y2="7.24314" gradientUnits="userSpaceOnUse">
<stop stop-color="#32A071"/>
<stop offset="0.069" stop-color="#2DA771"/>
<stop offset="0.476" stop-color="#15CF74"/>
<stop offset="0.801" stop-color="#06E775"/>
<stop offset="1" stop-color="#00F076"/>
</linearGradient>
</defs>
</svg>
