<svg width="30" height="25" viewBox="0 0 30 25" fill="none" xmlns="http://www.w3.org/2000/svg">
<path d="M28.67 11.2632L24.4017 6.98343C23.746 6.32766 22.5955 5.84445 21.6636 5.84445H20.0529V3.40543C20.0529 1.53014 18.5228 0 16.6475 0H3.40543C1.53014 0 0 1.53014 0 3.40543V18.4998C0 20.4096 1.1965 21.9052 2.71514 21.9052H3.30189C3.8081 23.6884 5.43028 25 7.3746 25C9.31891 25 10.9411 23.6884 11.4473 21.9052H16.636C17.3608 21.9052 18.0281 21.6751 18.5803 21.2839C18.8449 23.3778 20.6167 25 22.7796 25C24.7239 25 26.3461 23.6884 26.8523 21.9052H27.5196C28.7736 21.9052 29.7975 20.8813 29.7975 19.6272V14.0014C29.7975 13.0695 29.3258 11.919 28.67 11.2632ZM7.3746 22.699C6.30465 22.699 5.41878 21.8247 5.41878 20.7547C5.41878 19.6848 6.29314 18.7989 7.3746 18.7989C8.45605 18.7989 9.31891 19.6733 9.31891 20.7547C9.31891 21.8362 8.44455 22.699 7.3746 22.699ZM16.636 19.6042H11.4473C10.9411 17.821 9.31891 16.4979 7.3746 16.4979C5.43028 16.4979 3.8081 17.821 3.30189 19.6042H2.72665C2.6116 19.5697 2.30097 19.167 2.30097 18.4998V3.40543C2.30097 2.79567 2.79567 2.30097 3.40543 2.30097H16.636C17.2457 2.30097 17.7404 2.79567 17.7404 3.40543V18.4998C17.7404 19.1095 17.2457 19.6042 16.636 19.6042ZM22.7796 22.699C21.7096 22.699 20.8237 21.8247 20.8237 20.7547C20.8237 19.6848 21.6981 18.7989 22.7796 18.7989C23.861 18.7989 24.7239 19.6733 24.7239 20.7547C24.7239 21.8362 23.8495 22.699 22.7796 22.699ZM26.8523 19.6042C26.3461 17.821 24.7239 16.4979 22.7796 16.4979C21.7326 16.4979 20.7777 16.8891 20.0414 17.5334V8.14542H21.6521C21.9627 8.14542 22.538 8.38702 22.7566 8.60561L27.0249 12.8854C27.2434 13.104 27.485 13.6792 27.485 14.0014L27.5081 19.6042H26.8408H26.8523Z" fill="white"/>
</svg>
