<svg width="26" height="26" viewBox="0 0 26 26" fill="none" xmlns="http://www.w3.org/2000/svg">
<path fill-rule="evenodd" clip-rule="evenodd" d="M2.22876 13.2409C2.22876 7.30333 7.01988 2.51221 12.9575 2.51221C18.8951 2.51221 23.6862 7.30333 23.6862 13.2409C23.6862 19.1786 18.8951 23.9697 12.9575 23.9697C7.01988 23.9697 2.22876 19.1786 2.22876 13.2409ZM12.9575 0.512207C5.91531 0.512207 0.22876 6.19876 0.22876 13.2409C0.22876 20.2831 5.91531 25.9697 12.9575 25.9697C19.9997 25.9697 25.6862 20.2831 25.6862 13.2409C25.6862 6.19876 19.9997 0.512207 12.9575 0.512207ZM18.7437 18.3623C18.9001 18.5773 19.0564 18.7923 19.2128 19.0269C17.9618 19.1051 16.7107 19.1051 15.4596 18.9487C15.2642 18.7142 15.0882 18.46 14.9123 18.2059C14.7364 17.9518 14.5604 17.6977 14.3649 17.4631C13.6612 16.4466 12.8793 15.4301 12.0974 14.4136L12.0974 14.4136L12.0192 14.3354L11.7846 14.57C11.1982 15.2346 10.5922 15.8797 9.98622 16.5248C9.38023 17.1699 8.77425 17.8149 8.18781 18.4796C8.10962 18.636 7.95324 18.7923 7.79685 18.9487H7.71866H6.70217L7.01494 18.636L10.299 15.1173L10.299 15.1173C10.69 14.7264 11.1591 14.2572 11.5501 13.7881V13.7099C10.7681 12.6934 10.0058 11.6574 9.24339 10.6213C8.48103 9.58528 7.71866 8.54924 6.93675 7.53275C6.89765 7.49366 6.8781 7.45456 6.85856 7.41547C6.83901 7.37637 6.81946 7.33728 6.78036 7.29818H6.85856H8.50058H10.3772H10.4554C10.6508 7.57184 10.8659 7.86506 11.0809 8.15827C11.2959 8.45149 11.511 8.74472 11.7064 9.0184C12.0192 9.44845 12.332 9.85895 12.6447 10.2695C12.9575 10.68 13.2703 11.0905 13.583 11.5205H13.6612C14.1304 11.0123 14.619 10.4845 15.1077 9.95676C15.5964 9.42894 16.0851 8.90113 16.5543 8.39286C16.8671 8.0801 17.1798 7.76733 17.4926 7.29818H17.5708H17.649H18.5873H18.6655L18.1963 7.76733L15.616 10.5822C15.3814 10.8559 15.1469 11.11 14.9123 11.3641C14.6777 11.6183 14.4431 11.8724 14.2086 12.1461V12.2242C15.0553 13.4197 15.9338 14.5834 16.8036 15.7356C17.2992 16.3921 17.792 17.0449 18.2745 17.6977C18.4309 17.9322 18.5873 18.1473 18.7437 18.3623ZM16.007 18.3232H17.5708C17.3382 17.9511 17.1057 17.6343 16.8895 17.34C16.7424 17.1395 16.6028 16.9494 16.4761 16.7594C16.0852 16.212 15.6747 15.6647 15.2642 15.1173C14.8536 14.57 14.4431 14.0227 14.0522 13.4753C13.7752 13.1005 13.5016 12.7292 13.2299 12.3605C12.1981 10.96 11.1949 9.59822 10.1426 8.23648H10.0644H9.59526H8.42239L8.50058 8.31467C9.43887 9.64391 10.4553 10.9732 11.4718 12.3024L11.4719 12.3024C12.2147 13.2798 12.9575 14.2768 13.7003 15.2737C14.4431 16.2707 15.186 17.2676 15.9288 18.245C15.9288 18.3232 15.9288 18.3232 16.007 18.3232Z" fill="#FEFEFE"/>
</svg>
