<svg width="25" height="26" viewBox="0 0 25 26" fill="none" xmlns="http://www.w3.org/2000/svg">
<path d="M23.167 20.902C22.5745 19.4987 21.7148 18.2239 20.6356 17.1489C19.5597 16.0707 18.2852 15.2111 16.8825 14.6175C16.8699 14.6112 16.8573 14.608 16.8448 14.6018C18.8014 13.1884 20.0734 10.8863 20.0734 8.28894C20.0734 3.98618 16.5872 0.5 12.2845 0.5C7.9817 0.5 4.49552 3.98618 4.49552 8.28894C4.49552 10.8863 5.76751 13.1884 7.72416 14.6049C7.7116 14.6112 7.69904 14.6143 7.68648 14.6206C6.27944 15.2142 5.01688 16.0653 3.93334 17.152C2.85516 18.2279 1.99553 19.5024 1.40193 20.9052C0.818769 22.2784 0.504258 23.7508 0.47542 25.2425C0.474582 25.276 0.480462 25.3093 0.492713 25.3405C0.504963 25.3718 0.523338 25.4002 0.546753 25.4242C0.570169 25.4482 0.598151 25.4673 0.629052 25.4803C0.659952 25.4933 0.693146 25.5 0.726677 25.5H2.6111C2.74929 25.5 2.85921 25.3901 2.86236 25.255C2.92517 22.8304 3.89879 20.5597 5.61989 18.8386C7.40067 17.0578 9.76562 16.0779 12.2845 16.0779C14.8033 16.0779 17.1683 17.0578 18.949 18.8386C20.6701 20.5597 21.6438 22.8304 21.7066 25.255C21.7097 25.3932 21.8196 25.5 21.9578 25.5H23.8423C23.8758 25.5 23.909 25.4933 23.9399 25.4803C23.9708 25.4673 23.9988 25.4482 24.0222 25.4242C24.0456 25.4002 24.064 25.3718 24.0762 25.3405C24.0885 25.3093 24.0943 25.276 24.0935 25.2425C24.0621 23.7412 23.7512 22.2808 23.167 20.902ZM12.2845 13.691C10.8429 13.691 9.4861 13.1288 8.46537 12.108C7.44464 11.0873 6.88246 9.73053 6.88246 8.28894C6.88246 6.84736 7.44464 5.49058 8.46537 4.46985C9.4861 3.44912 10.8429 2.88693 12.2845 2.88693C13.726 2.88693 15.0828 3.44912 16.1036 4.46985C17.1243 5.49058 17.6865 6.84736 17.6865 8.28894C17.6865 9.73053 17.1243 11.0873 16.1036 12.108C15.0828 13.1288 13.726 13.691 12.2845 13.691Z" fill="#1A1A1A"/>
</svg>
