<svg width="50" height="36" viewBox="0 0 50 36" fill="none" xmlns="http://www.w3.org/2000/svg">
<path d="M44.1923 0.0732422H5.80769C2.60019 0.0732422 0 2.69076 0 5.91965V29.6538C0 32.8826 2.60019 35.5001 5.80769 35.5001H44.1923C47.3998 35.5001 50 32.8826 50 29.6538V5.91965C50 2.69076 47.3998 0.0732422 44.1923 0.0732422Z" fill="white"/>
<path d="M22.1744 24.1145H18.7128L20.8858 11.473H24.3283L22.1744 24.1145ZM34.6744 11.7828C33.6744 11.415 32.6359 11.2407 31.5782 11.2407C28.1744 11.2407 25.7706 12.9636 25.7706 15.4223C25.7321 17.242 27.482 18.2486 28.7897 18.8489C30.1167 19.4683 30.559 19.8748 30.559 20.4169C30.559 21.2686 29.482 21.6752 28.5013 21.6752C27.3859 21.714 26.2705 21.4817 25.2513 20.9976L24.7897 20.7847L24.309 23.6111C25.1166 23.9596 26.5974 24.2693 28.1551 24.2886C31.7706 24.2886 34.1358 22.6045 34.1551 19.9909C34.1551 18.5391 33.2512 17.4356 31.2705 16.5451C30.059 15.9643 29.3283 15.5772 29.3283 14.977C29.3283 14.4543 29.9628 13.8929 31.309 13.8929C32.4244 13.8929 33.2512 14.1252 33.8859 14.3769L34.1936 14.5124L34.6552 11.7828H34.6744Z" fill="#15195A"/>
<path fill-rule="evenodd" clip-rule="evenodd" d="M40.8431 11.4771H43.5162L46.2854 24.1185H43.0739L42.6701 22.2213H38.2471L37.497 24.1185H33.8817L39.0163 12.5418C39.3816 11.7287 39.997 11.4771 40.8239 11.4771H40.8431ZM40.6124 16.1038L39.2471 19.6465H42.1124L41.3239 15.9877L41.0739 14.8842L40.7085 15.8135L40.6124 16.0844V16.1038Z" fill="#15195A"/>
<path d="M3.74916 11.4771H9.30686C10.0569 11.5158 10.653 11.7287 10.8645 12.5418L12.0761 18.3494L12.4415 20.0919L15.8261 11.4771H19.4799L14.0569 24.0991H10.403L7.32609 13.1226C6.19147 12.5031 4.9607 12.0385 3.69147 11.7481L3.74916 11.4964V11.4771Z" fill="#15195A"/>
</svg>
