<svg width="26" height="26" viewBox="0 0 26 26" fill="none" xmlns="http://www.w3.org/2000/svg">
<path fill-rule="evenodd" clip-rule="evenodd" d="M2.31378 13.2409C2.31378 7.31563 7.1172 2.51221 13.0425 2.51221C18.9678 2.51221 23.7713 7.31563 23.7713 13.2409C23.7713 19.1663 18.9678 23.9697 13.0425 23.9697C7.1172 23.9697 2.31378 19.1663 2.31378 13.2409ZM13.0425 0.512207C6.01263 0.512207 0.313782 6.21106 0.313782 13.2409C0.313782 20.2708 6.01263 25.9697 13.0425 25.9697C20.0724 25.9697 25.7713 20.2708 25.7713 13.2409C25.7713 6.21106 20.0724 0.512207 13.0425 0.512207ZM18.5281 9.50464C18.9176 9.89403 19.0344 10.7508 19.0344 10.7508C19.0344 10.7508 19.1512 11.7634 19.1512 12.7759V13.7105C19.1512 14.723 19.0344 15.7355 19.0344 15.7355C19.0344 15.7355 18.9176 16.5922 18.5281 16.9817C18.1218 17.4219 17.6566 17.4793 17.3885 17.5124C17.3483 17.5174 17.3125 17.5218 17.282 17.5269C15.5296 17.6438 12.9203 17.6438 12.9203 17.6438C12.9203 17.6438 9.6881 17.6048 8.67552 17.5269C8.61335 17.5091 8.53295 17.4974 8.44033 17.4839C8.12683 17.4384 7.67328 17.3725 7.31254 16.9817C6.92312 16.5922 6.80628 15.7355 6.80628 15.7355C6.80628 15.7355 6.68946 14.723 6.68946 13.7105V12.7759C6.68946 11.7634 6.80628 10.7508 6.80628 10.7508C6.80628 10.7508 6.92312 9.89403 7.31254 9.50464C7.7189 9.06439 8.18414 9.00696 8.45222 8.97387C8.49244 8.9689 8.52822 8.96449 8.5587 8.95941C10.3111 8.84259 12.9203 8.84259 12.9203 8.84259C12.9203 8.84259 15.5296 8.84259 17.282 8.95941C17.3125 8.96449 17.3483 8.9689 17.3885 8.97387C17.6566 9.00696 18.1218 9.0644 18.5281 9.50464ZM11.6352 11.3739V14.8787L14.9843 13.1263L11.6352 11.3739Z" fill="white"/>
</svg>
